<?xml version="1.0" encoding="UTF-8"?>
<svg width="16px" height="16px" viewBox="0 0 16 16" version="1.1" xmlns="http://www.w3.org/2000/svg" xmlns:xlink="http://www.w3.org/1999/xlink">
    <!-- Generator: Sketch 63.1 (92452) - https://sketch.com -->
    <title>Edit</title>
    <desc>Created with Sketch.</desc>
    <g id="Design-System" stroke="none" stroke-width="1" fill="none" fill-rule="evenodd">
        <g id="Icons" transform="translate(-64.000000, -2163.000000)">
            <g id="Edit" transform="translate(60.000000, 2159.000000)">
                <rect id="Rectangle" x="0" y="0" width="24" height="24"></rect>
                <path d="M4.78598067,16.38675 L7.60998067,19.21075 L7.55998067,19.26075 C7.35598067,19.46575 7.09498067,19.59875 6.81198067,19.64175 L4.30598067,20.00175 C4.12998067,20.02275 3.98098067,19.87475 4.00198067,19.69875 L4.36198067,17.19175 C4.40498067,16.90875 4.53198067,16.64075 4.73598067,16.43575 L4.78598067,16.38675 Z M15.1777807,5.99485 L18.0017807,8.81885 L9.02278067,17.79885 L6.19778067,14.97485 L15.1777807,5.99485 Z M19.4138807,4.58275 C19.8098807,4.97775 19.9998807,5.49375 19.9998807,6.00175 C19.9998807,6.51075 19.8028807,7.01875 19.4138807,7.40675 L16.5898807,4.58275 C17.3658807,3.80575 18.6378807,3.80575 19.4138807,4.58275 Z" id="Combined-Shape" fill="#808080"></path>
            </g>
        </g>
    </g>
</svg>