<svg width="16" height="16" viewBox="0 0 16 16" fill="none" xmlns="http://www.w3.org/2000/svg">
<path d="M14.0551 3.36193L13.8424 3.14924L11.0575 0.364413L10.8448 0.151724C10.7486 0.0554483 10.615 0 10.4785 0H2.47241C2.14524 0 1.79297 0.252689 1.79297 0.807172V10.7586V15.3205V15.4483C1.79297 15.6792 2.02524 15.9043 2.3 15.9752C2.3138 15.9788 2.32704 15.984 2.34138 15.9868C2.38441 15.9953 2.42828 16 2.47241 16H13.5273C13.5715 16 13.6153 15.9953 13.6584 15.9868C13.6727 15.984 13.6859 15.9788 13.6997 15.9752C13.9745 15.9043 14.2068 15.6792 14.2068 15.4483V15.3205V10.7586V3.856C14.2068 3.64441 14.1813 3.48828 14.0551 3.36193ZM13.2233 3.31035H10.8964V0.983448L13.2233 3.31035ZM2.47241 15.4483C2.45282 15.4483 2.43517 15.4411 2.4178 15.4348C2.37476 15.4144 2.34469 15.3713 2.34469 15.3205V11.3103H13.6551V15.3205C13.6551 15.3713 13.6249 15.4141 13.5819 15.4348C13.5645 15.4411 13.5469 15.4483 13.5273 15.4483H2.47241ZM2.34469 10.7586V0.807172C2.34469 0.747311 2.3538 0.551724 2.47241 0.551724H10.3607C10.3516 0.586483 10.3447 0.622345 10.3447 0.659587V3.86207H13.5472C13.5844 3.86207 13.62 3.85517 13.6548 3.84607C13.6548 3.85021 13.6551 3.85187 13.6551 3.856V10.7586H2.34469Z" fill="black" fill-opacity="0.54"/>
<path d="M6.08039 12.3432C5.98852 12.2679 5.8848 12.2111 5.76922 12.1736C5.65363 12.1358 5.53666 12.117 5.41859 12.117H4.61915V14.8967H5.07183V13.8933H5.40756C5.55321 13.8933 5.68672 13.872 5.80728 13.8293C5.92783 13.7865 6.031 13.7261 6.11652 13.6484C6.20204 13.5705 6.26852 13.4743 6.31652 13.3597C6.36424 13.2453 6.38824 13.1178 6.38824 12.9769C6.38824 12.8436 6.35983 12.7236 6.30328 12.6166C6.24672 12.5096 6.17224 12.4188 6.08039 12.3432ZM5.9088 13.2616C5.88094 13.3383 5.8448 13.3979 5.79956 13.4407C5.75431 13.4833 5.70466 13.5143 5.65059 13.5331C5.59652 13.5517 5.54163 13.5615 5.48646 13.5615H5.07156V12.4602H5.41087C5.52645 12.4602 5.61942 12.4784 5.69004 12.5148C5.76039 12.5512 5.815 12.5965 5.85417 12.6505C5.89307 12.7046 5.91874 12.7612 5.93142 12.8202C5.94383 12.8792 5.95018 12.9314 5.95018 12.9766C5.95018 13.09 5.93639 13.1849 5.9088 13.2616Z" fill="black" fill-opacity="0.54"/>
<path d="M8.8151 12.5242C8.69814 12.4012 8.5511 12.3021 8.37372 12.2282C8.19634 12.1543 7.99082 12.117 7.75716 12.117H6.91992V14.8967H7.97207C8.0071 14.8967 8.06116 14.8921 8.13427 14.8833C8.2071 14.8745 8.28764 14.8547 8.37566 14.8229C8.46366 14.7915 8.55468 14.7444 8.64903 14.6815C8.74338 14.6185 8.82807 14.5325 8.90366 14.4229C8.97924 14.3135 9.04131 14.1777 9.0904 14.0155C9.13951 13.8533 9.16407 13.6577 9.16407 13.4291C9.16407 13.263 9.1351 13.1013 9.07744 12.9443C9.01923 12.7876 8.93207 12.6475 8.8151 12.5242ZM8.48516 14.2704C8.34944 14.4665 8.1282 14.5645 7.82144 14.5645H7.37262V12.4599H7.63662C7.8529 12.4599 8.0289 12.4883 8.16462 12.5449C8.30034 12.6014 8.40792 12.6756 8.4871 12.7675C8.56627 12.8594 8.61951 12.9617 8.64738 13.0748C8.67496 13.1879 8.68875 13.3024 8.68875 13.418C8.68875 13.7901 8.6209 14.0745 8.48516 14.2704Z" fill="black" fill-opacity="0.54"/>
<path d="M9.81966 14.8967H10.2798V13.6445H11.4415V13.3352H10.2798V12.4602H11.5581V12.117H9.81966V14.8967Z" fill="black" fill-opacity="0.54"/>
<path d="M10.6007 6.33409C10.3471 6.33409 10.036 6.3672 9.67432 6.43285C9.1695 5.89713 8.6426 5.11478 8.27074 4.34678C8.63956 2.79396 8.45502 2.57409 8.37363 2.47037C8.28702 2.36002 8.1648 2.18098 8.02578 2.18098C7.96756 2.18098 7.80867 2.20746 7.7455 2.22844C7.5866 2.2814 7.50108 2.40388 7.43267 2.56361C7.23763 3.01961 7.50522 3.79698 7.78054 4.39616C7.54522 5.33216 7.15046 6.45244 6.73556 7.36168C5.69004 7.84057 5.13473 8.31092 5.08453 8.75974C5.06632 8.92305 5.10495 9.16278 5.39212 9.37822C5.47073 9.43698 5.56287 9.46816 5.65887 9.46816C5.90026 9.46816 6.14412 9.28333 6.42632 8.88692C6.63212 8.59781 6.85308 8.20361 7.08371 7.71422C7.82245 7.3912 8.73639 7.09933 9.51902 6.93574C9.95487 7.35422 10.3452 7.56609 10.6807 7.56609C10.9278 7.56609 11.1397 7.45244 11.2931 7.23754C11.4528 7.01381 11.4892 6.81354 11.4007 6.64168C11.2945 6.43505 11.0327 6.33409 10.6007 6.33409ZM5.66495 9.00251C5.53584 8.90347 5.54328 8.83672 5.54604 8.81161C5.56315 8.65822 5.80343 8.38596 6.39295 8.05464C5.94604 8.88002 5.70604 8.98955 5.66495 9.00251ZM7.92702 2.6792C7.93887 2.67533 8.21528 2.98292 7.9535 3.56637C7.56012 3.16388 7.89998 2.68829 7.92702 2.6792ZM7.3568 7.10016C7.6368 6.43285 7.89722 5.69602 8.09446 5.01354C8.40426 5.57022 8.77639 6.11037 9.1488 6.54292C8.56012 6.68113 7.93336 6.87616 7.3568 7.10016ZM10.9157 6.96802C10.8307 7.08692 10.6465 7.08968 10.5819 7.08968C10.4349 7.08968 10.38 7.00222 10.1551 6.82926C10.3405 6.80554 10.5154 6.79946 10.6547 6.79946C10.9 6.79946 10.9449 6.83561 10.9789 6.85381C10.9728 6.8734 10.9568 6.91037 10.9157 6.96802Z" fill="black" fill-opacity="0.54"/>
</svg>
