<svg width="16" height="16" viewBox="0 0 16 16" fill="none" xmlns="http://www.w3.org/2000/svg">
<path fill-rule="evenodd" clip-rule="evenodd" d="M12.6665 5.33334H11.9998V2H3.99982V5.33334H3.33315C2.22648 5.33334 1.33315 6.22666 1.33315 7.33334V11.3333H3.99982V14H11.9998V11.3333H14.6665V7.33334C14.6665 6.22666 13.7731 5.33334 12.6665 5.33334ZM5.33315 3.33334H10.6665V5.33334H5.33315V3.33334ZM10.6665 12.6666V11.3333V10H5.33315V12.6666H10.6665ZM11.9998 10V8.66666H3.99982V10H2.66648V7.33334C2.66648 6.96666 2.96648 6.66666 3.33315 6.66666H12.6665C13.0331 6.66666 13.3331 6.96666 13.3331 7.33334V10H11.9998ZM11.3331 7.66666C11.3331 7.29848 11.6317 7 11.9998 7C12.368 7 12.6665 7.29848 12.6665 7.66666C12.6665 8.03486 12.368 8.33334 11.9998 8.33334C11.6317 8.33334 11.3331 8.03486 11.3331 7.66666Z" fill="black" fill-opacity="0.45"/>
<path fill-rule="evenodd" clip-rule="evenodd" d="M12.6665 5.33334H11.9998V2H3.99982V5.33334H3.33315C2.22648 5.33334 1.33315 6.22666 1.33315 7.33334V11.3333H3.99982V14H11.9998V11.3333H14.6665V7.33334C14.6665 6.22666 13.7731 5.33334 12.6665 5.33334ZM5.33315 3.33334H10.6665V5.33334H5.33315V3.33334ZM10.6665 12.6666V11.3333V10H5.33315V12.6666H10.6665ZM11.9998 10V8.66666H3.99982V10H2.66648V7.33334C2.66648 6.96666 2.96648 6.66666 3.33315 6.66666H12.6665C13.0331 6.66666 13.3331 6.96666 13.3331 7.33334V10H11.9998ZM11.3331 7.66666C11.3331 7.29848 11.6317 7 11.9998 7C12.368 7 12.6665 7.29848 12.6665 7.66666C12.6665 8.03486 12.368 8.33334 11.9998 8.33334C11.6317 8.33334 11.3331 8.03486 11.3331 7.66666Z" fill="black" fill-opacity="0.45"/>
</svg>
