<?xml version="1.0" encoding="UTF-8"?>
<svg width="4px" height="14px" viewBox="0 0 4 14" version="1.1" xmlns="http://www.w3.org/2000/svg" xmlns:xlink="http://www.w3.org/1999/xlink">
    <!-- Generator: Sketch 63.1 (92452) - https://sketch.com -->
    <title>3 dots</title>
    <desc>Created with Sketch.</desc>
    <g id="Design-System" stroke="none" stroke-width="1" fill="none" fill-rule="evenodd">
        <g id="Icons" transform="translate(-70.000000, -624.000000)">
            <g id="3-dots" transform="translate(60.000000, 619.000000)">
                <circle id="Oval" cx="12" cy="12" r="12"></circle>
                <path d="M12,15.5 C12.828,15.5 13.5,16.171 13.5,17 C13.5,17.829 12.828,18.5 12,18.5 C11.172,18.5 10.5,17.829 10.5,17 C10.5,16.171 11.172,15.5 12,15.5 Z M12,10.5 C12.828,10.5 13.5,11.171 13.5,12 C13.5,12.829 12.828,13.5 12,13.5 C11.172,13.5 10.5,12.829 10.5,12 C10.5,11.171 11.172,10.5 12,10.5 Z M12,5.5 C12.828,5.5 13.5,6.171 13.5,7 C13.5,7.829 12.828,8.5 12,8.5 C11.172,8.5 10.5,7.829 10.5,7 C10.5,6.171 11.172,5.5 12,5.5 Z" id="Combined-Shape" fill="#808080"></path>
            </g>
        </g>
    </g>
</svg>