<?xml version="1.0" encoding="UTF-8"?>
<svg width="20px" height="17px" viewBox="0 0 20 17" version="1.1" xmlns="http://www.w3.org/2000/svg" xmlns:xlink="http://www.w3.org/1999/xlink">
    <!-- Generator: Sketch 63.1 (92452) - https://sketch.com -->
    <title>Accounts</title>
    <desc>Created with Sketch.</desc>
    <g id="Design-System" stroke="none" stroke-width="1" fill="none" fill-rule="evenodd">
        <g id="Icons" transform="translate(-62.000000, -271.000000)">
            <g id="Accounts" transform="translate(60.000000, 267.000000)">
                <rect id="Rectangle-Copy-3" x="0" y="0" width="24" height="24"></rect>
                <path d="M7,18.09125 L9,18.09125 L9,11.10625 L7,11.10625 L7,18.09125 Z M11.629,6.07225 C11.869,5.97725 12.133,5.97725 12.371,6.07225 L19.962,9.10625 L4.038,9.10625 L11.629,6.07225 Z M11,18.09125 L13,18.09125 L13,11.10625 L11,11.10625 L11,18.09125 Z M15,18.09125 L17,18.09125 L17,11.10625 L15,11.10625 L15,18.09125 Z M21,18.09125 L19,18.09125 L19,11.10625 L19.962,11.10625 C20.935,11.10625 21.742,10.43925 21.926,9.48425 C22.109,8.52825 21.607,7.61025 20.704,7.24825 L13.113,4.21525 C12.395,3.92825 11.605,3.92825 10.887,4.21525 L3.296,7.24825 C2.393,7.61025 1.891,8.52825 2.074,9.48425 C2.258,10.43925 3.065,11.10625 4.038,11.10625 L5,11.10625 L5,18.09125 L3,18.09125 C2.447,18.09125 2,18.53925 2,19.09125 C2,19.64325 2.447,20.09125 3,20.09125 L21,20.09125 C21.553,20.09125 22,19.64325 22,19.09125 C22,18.53925 21.553,18.09125 21,18.09125 L21,18.09125 Z" id="Fill-8" fill="#808080"></path>
            </g>
        </g>
    </g>
</svg>