<?xml version="1.0" encoding="UTF-8"?>
<svg width="18px" height="18px" viewBox="0 0 18 18" version="1.1" xmlns="http://www.w3.org/2000/svg" xmlns:xlink="http://www.w3.org/1999/xlink">
    <!-- Generator: Sketch 63.1 (92452) - https://sketch.com -->
    <title>Add</title>
    <desc>Created with Sketch.</desc>
    <g id="Design-System" stroke="none" stroke-width="1" fill="none" fill-rule="evenodd">
        <g id="Icons" transform="translate(-63.000000, -710.000000)">
            <g id="Add" transform="translate(60.000000, 707.000000)">
                <rect id="Rectangle-Copy-48" x="0" y="0" width="24" height="24"></rect>
                <path d="M20,11 L13,11 L13,4 C13,3.448 12.553,3 12,3 C11.447,3 11,3.448 11,4 L11,11 L4,11 C3.447,11 3,11.448 3,12 C3,12.552 3.447,13 4,13 L11,13 L11,20 C11,20.552 11.447,21 12,21 C12.553,21 13,20.552 13,20 L13,13 L20,13 C20.553,13 21,12.552 21,12 C21,11.448 20.553,11 20,11" id="Fill-1" fill="#ffffff"></path>
            </g>
        </g>
    </g>
</svg>