<?xml version="1.0" encoding="UTF-8"?>
<svg width="18px" height="18px" viewBox="0 0 18 18" version="1.1" xmlns="http://www.w3.org/2000/svg" xmlns:xlink="http://www.w3.org/1999/xlink">
    <!-- Generator: Sketch 63.1 (92452) - https://sketch.com -->
    <title>Advanced search</title>
    <desc>Created with Sketch.</desc>
    <g id="Design-System" stroke="none" stroke-width="1" fill="none" fill-rule="evenodd">
        <g id="Icons" transform="translate(-63.000000, -886.000000)">
            <g id="Advanced-search" transform="translate(60.000000, 883.000000)">
                <rect id="Rectangle-Copy-44" x="0" y="0" width="24" height="24"></rect>
                <path d="M10.5,3 C14.643,3 18,6.358 18,10.5 C18,12.21 17.421,13.782 16.457,15.043 L16.457,15.043 L20.707,19.293 C21.098,19.684 21.098,20.316 20.707,20.707 C20.512,20.902 20.256,21 20,21 C19.744,21 19.488,20.902 19.293,20.707 L19.293,20.707 L15.043,16.458 C13.781,17.421 12.21,18 10.5,18 C6.357,18 3,14.642 3,10.5 C3,6.358 6.357,3 10.5,3 Z M10.5,5 C7.467,5 5,7.467 5,10.5 C5,13.533 7.467,16 10.5,16 C13.533,16 16,13.533 16,10.5 C16,7.467 13.533,5 10.5,5 Z M10.5,7.5 C11.053,7.5 11.5,7.948 11.5,8.5 L11.5,8.5 L11.5,9.5 L12.5,9.5 C13.053,9.5 13.5,9.948 13.5,10.5 C13.5,11.052 13.053,11.5 12.5,11.5 L12.5,11.5 L11.5,11.5 L11.5,12.5 C11.5,13.052 11.053,13.5 10.5,13.5 C9.947,13.5 9.5,13.052 9.5,12.5 L9.5,12.5 L9.5,11.5 L8.5,11.5 C7.947,11.5 7.5,11.052 7.5,10.5 C7.5,9.948 7.947,9.5 8.5,9.5 L8.5,9.5 L9.5,9.5 L9.5,8.5 C9.5,7.948 9.947,7.5 10.5,7.5 Z" id="Combined-Shape" fill="#808080"></path>
            </g>
        </g>
    </g>
</svg>