<?xml version="1.0" encoding="UTF-8"?>
<svg width="12px" height="12px" viewBox="0 0 12 12" version="1.1" xmlns="http://www.w3.org/2000/svg" xmlns:xlink="http://www.w3.org/1999/xlink">
    <!-- Generator: Sketch 63.1 (92452) - https://sketch.com -->
    <title>Calendar small</title>
    <desc>Created with Sketch.</desc>
    <g id="Design-System" stroke="none" stroke-width="1" fill="none" fill-rule="evenodd">
        <g id="Icons" transform="translate(-66.000000, -977.000000)">
            <g id="Calendar-small" transform="translate(60.000000, 971.000000)">
                <rect id="Rectangle" x="0" y="0" width="24" height="24"></rect>
                <path d="M8,16 L16,16 L16,11 L8,11 L8,16 Z M16,8 L15.5,8 L15.5,7 C15.5,6.448 15.053,6 14.5,6 C13.947,6 13.5,6.448 13.5,7 L13.5,8 L10.5,8 L10.5,7 C10.5,6.448 10.053,6 9.5,6 C8.947,6 8.5,6.448 8.5,7 L8.5,8 L8,8 C6.896,8 6,8.896 6,10 L6,11 L6,16 C6,17.104 6.896,18 8,18 L16,18 C17.104,18 18,17.104 18,16 L18,11 L18,10 C18,8.896 17.104,8 16,8 L16,8 Z" id="Fill-1" fill="#808080"></path>
            </g>
        </g>
    </g>
</svg>