<?xml version="1.0" encoding="UTF-8"?>
<svg width="16px" height="20px" viewBox="0 0 16 20" version="1.1" xmlns="http://www.w3.org/2000/svg" xmlns:xlink="http://www.w3.org/1999/xlink">
    <!-- Generator: Sketch 63.1 (92452) - https://sketch.com -->
    <title>Appointments</title>
    <desc>Created with Sketch.</desc>
    <g id="Design-System" stroke="none" stroke-width="1" fill="none" fill-rule="evenodd">
        <g id="Icons" transform="translate(-64.000000, -357.000000)">
            <g id="Appointments" transform="translate(60.000000, 355.000000)">
                <rect id="Rectangle-Copy-5" x="0" y="0" width="24" height="24"></rect>
                <path d="M15.5,2 C16.053,2 16.5,2.448 16.5,3 L16.5,3 L16.5,4 L18,4 C19.104,4 20,4.896 20,6 L20,6 L20,20 C20,21.104 19.104,22 18,22 L18,22 L6,22 C4.896,22 4,21.104 4,20 L4,20 L4,6 C4,4.896 4.896,4 6,4 L6,4 L7.5,4 L7.5,3 C7.5,2.448 7.947,2 8.5,2 C9.053,2 9.5,2.448 9.5,3 L9.5,3 L9.5,4 L14.5,4 L14.5,3 C14.5,2.448 14.947,2 15.5,2 Z M18,8 L6,8 L6,20 L18,20 L18,8 Z M8.5,9.5 C9.053,9.5 9.5,9.948 9.5,10.5 C9.5,11.052 9.053,11.5 8.5,11.5 C7.947,11.5 7.5,11.052 7.5,10.5 C7.5,9.948 7.947,9.5 8.5,9.5 Z M12,9.5 C12.553,9.5 13,9.948 13,10.5 C13,11.052 12.553,11.5 12,11.5 C11.447,11.5 11,11.052 11,10.5 C11,9.948 11.447,9.5 12,9.5 Z M15.5,9.5 C16.053,9.5 16.5,9.948 16.5,10.5 C16.5,11.052 16.053,11.5 15.5,11.5 C14.947,11.5 14.5,11.052 14.5,10.5 C14.5,9.948 14.947,9.5 15.5,9.5 Z" id="Combined-Shape" fill="#808080"></path>
            </g>
        </g>
    </g>
</svg>