<?xml version="1.0" encoding="UTF-8"?>
<svg width="19px" height="18px" viewBox="0 0 19 18" version="1.1" xmlns="http://www.w3.org/2000/svg" xmlns:xlink="http://www.w3.org/1999/xlink">
    <!-- Generator: Sketch 63.1 (92452) - https://sketch.com -->
    <title>Call lists</title>
    <desc>Created with Sketch.</desc>
    <g id="Design-System" stroke="none" stroke-width="1" fill="none" fill-rule="evenodd">
        <g id="Icons" transform="translate(-63.000000, -402.000000)">
            <g id="Call-lists" transform="translate(60.000000, 399.000000)">
                <rect id="Rectangle-Copy-7" x="0" y="0" width="24" height="24"></rect>
                <path d="M19.01425,18.776 C19.01425,18.917 18.97225,18.988 18.91525,19.016 C16.70125,18.854 14.54525,18.196 12.60825,17.107 L13.73325,15.983 C14.05725,15.657 14.56725,15.573 15.00525,15.756 C16.27125,16.301 17.61525,16.626 19.01425,16.796 L19.01425,18.776 Z M6.90925,11.408 C5.82025,9.47 5.16225,7.314 4.99925,5.101 C5.02825,5.044 5.09825,5.002 5.24025,5.002 L7.22025,5.002 C7.38925,6.401 7.71525,7.745 8.25925,9.011 C8.44425,9.449 8.35825,9.958 8.03325,10.284 L6.90925,11.408 Z M19.14225,14.745 C17.98925,14.653 16.85825,14.371 15.78925,13.925 C14.59525,13.409 13.22325,13.664 12.31825,14.568 L10.90425,15.983 C10.36725,15.573 9.85025,15.127 9.37625,14.639 C8.88925,14.166 8.44425,13.65 8.03325,13.112 L9.44825,11.698 C10.35225,10.793 10.60725,9.421 10.09025,8.226 C9.64525,7.158 9.36325,6.027 9.27025,4.874 C9.19325,3.82 8.28725,3 7.21325,3 L5.24025,3.007 C4.56925,3 3.96725,3.248 3.54325,3.7 C3.19025,4.082 2.99825,4.57 3.00525,5.086 C2.99825,5.136 2.99825,5.193 3.00525,5.242 C3.21725,8.197 4.21525,11.075 5.87625,13.543 C5.89125,13.557 5.89825,13.579 5.90525,13.586 C6.52725,14.477 7.20525,15.297 7.96225,16.053 C8.71925,16.81 9.53925,17.489 10.43025,18.111 C10.43725,18.118 10.45825,18.125 10.47325,18.139 C12.94025,19.801 15.81925,20.798 18.77425,21.01 C18.82425,21.018 18.88025,21.018 18.93025,21.01 C19.44625,21.018 19.93425,20.826 20.31625,20.473 C20.76825,20.049 21.01625,19.448 21.00825,18.776 L21.01625,16.803 C21.01625,15.728 20.19625,14.823 19.14225,14.745 L19.14225,14.745 Z" id="Fill-15" fill="#808080"></path>
            </g>
        </g>
    </g>
</svg>