<?xml version="1.0" encoding="UTF-8"?>
<svg width="20px" height="14px" viewBox="0 0 20 14" version="1.1" xmlns="http://www.w3.org/2000/svg" xmlns:xlink="http://www.w3.org/1999/xlink">
    <!-- Generator: Sketch 63.1 (92452) - https://sketch.com -->
    <title>Campaigns</title>
    <desc>Created with Sketch.</desc>
    <g id="Design-System" stroke="none" stroke-width="1" fill="none" fill-rule="evenodd">
        <g id="Icons" transform="translate(-62.000000, -448.000000)">
            <g id="Campaigns" transform="translate(60.000000, 443.000000)">
                <rect id="Rectangle-Copy-6" x="0" y="0" width="24" height="24"></rect>
                <path d="M13.999,5 C15.049,5 16,5.843 16,7.003 L16,7.003 L16,16.53 C16,17.69 15.049,18.533 13.999,18.533 C13.703,18.533 13.398,18.466 13.105,18.319 L13.105,18.319 L8,15.766 L7,15.766 L7,17.766 C7,18.319 6.553,18.766 6,18.766 C5.447,18.766 5,18.319 5,17.766 L5,17.766 L5,15.766 L4,15.766 C2.896,15.766 2,14.871 2,13.766 L2,13.766 L2,9.766 C2,8.662 2.896,7.766 4,7.766 L4,7.766 L8,7.766 L13.105,5.214 C13.398,5.067 13.703,5 13.999,5 Z M18.293,15.0593 C18.684,14.6683 19.316,14.6683 19.707,15.0593 L19.707,15.0593 L21.121,16.4733 C21.512,16.8643 21.512,17.4973 21.121,17.8873 C20.926,18.0823 20.67,18.1803 20.414,18.1803 C20.158,18.1803 19.902,18.0823 19.707,17.8873 L19.707,17.8873 L18.293,16.4733 C17.902,16.0823 17.902,15.4503 18.293,15.0593 Z M14,7.003 L8.895,9.555 C8.617,9.694 8.311,9.766 8,9.766 L8,9.766 L4,9.766 L4,13.766 L8,13.766 C8.311,13.766 8.617,13.839 8.895,13.977 L8.895,13.977 L14,16.53 L14,7.003 Z M21,10.7663 C21.553,10.7663 22,11.2143 22,11.7663 C22,12.3183 21.553,12.7663 21,12.7663 L21,12.7663 L19,12.7663 C18.447,12.7663 18,12.3183 18,11.7663 C18,11.2143 18.447,10.7663 19,10.7663 L19,10.7663 Z M19.707,5.6453 C20.098,5.2543 20.73,5.2543 21.121,5.6453 C21.512,6.0363 21.512,6.6683 21.121,7.0593 L21.121,7.0593 L19.707,8.4733 C19.512,8.6683 19.256,8.7663 19,8.7663 C18.744,8.7663 18.488,8.6683 18.293,8.4733 C17.902,8.0823 17.902,7.4503 18.293,7.0593 L18.293,7.0593 Z" id="Combined-Shape" fill="#68BDD4"></path>
            </g>
        </g>
    </g>
</svg>