<svg xmlns="http://www.w3.org/2000/svg" viewBox="0 0 10 8" width="10" height="8">
	<style>
		tspan { white-space:pre }
		.shp0 { fill: none } 
		.shp1 { fill: #808080 } 
		.shp2 { fill: #ffffff } 
	</style>
	<g id="Design-System">
		<g id="Icons">
			<g id="Check">
				<g id="Group-25-Copy-7">
					<path id="Oval" class="shp0" d="M5 16C-1.64 16 -7 10.64 -7 4C-7 -2.64 -1.64 -8 5 -8C11.64 -8 17 -2.64 17 4C17 10.64 11.64 16 5 16Z" />
				</g>
				<path id="Fill-1" fill-rule="evenodd" class="shp1" d="M9.71 0.29C9.32 -0.1 8.68 -0.1 8.29 0.29L3 5.59L1.71 4.29C1.32 3.9 0.68 3.9 0.29 4.29C-0.1 4.68 -0.1 5.32 0.29 5.71L2.29 7.71C2.49 7.9 2.74 8 3 8C3.26 8 3.51 7.9 3.71 7.71L9.71 1.71C10.1 1.32 10.1 0.68 9.71 0.29Z" />
				<path id="Fill-1 copy" fill-rule="evenodd" class="shp2" d="M9.71 0.29C9.32 -0.1 8.68 -0.1 8.29 0.29L3 5.59L1.71 4.29C1.32 3.9 0.68 3.9 0.29 4.29C-0.1 4.68 -0.1 5.32 0.29 5.71L2.29 7.71C2.49 7.9 2.74 8 3 8C3.26 8 3.51 7.9 3.71 7.71L9.71 1.71C10.1 1.32 10.1 0.68 9.71 0.29Z" />
			</g>
		</g>
	</g>
</svg>