<?xml version="1.0" encoding="UTF-8"?>
<svg width="18px" height="18px" viewBox="0 0 18 18" version="1.1" xmlns="http://www.w3.org/2000/svg" xmlns:xlink="http://www.w3.org/1999/xlink">
    <!-- Generator: Sketch 63.1 (92452) - https://sketch.com -->
    <title>Colleagues</title>
    <desc>Created with Sketch.</desc>
    <g id="Design-System" stroke="none" stroke-width="1" fill="none" fill-rule="evenodd">
        <g id="Icons" transform="translate(-63.000000, -1502.000000)">
            <g id="Colleagues" transform="translate(60.000000, 1499.000000)">
                <rect id="Rectangle" x="0" y="0" width="24" height="24"></rect>
                <path d="M13.46,15 C13.39,14.92 13.32,14.84 13.24,14.76 C12.851,14.36 12.4,14.02 11.9,13.75 C12.46,13.16 12.841,12.41 12.96,11.57 C13.561,11.21 14.261,11 15,11 C17.2,11 19,12.79 19,15 L13.46,15 Z M13,19 L5,19 C5,16.79 6.79,15 9,15 C10.47,15 11.771,15.8 12.45,17 C12.8,17.59 13,18.27 13,19 L13,19 Z M7,11 C7,9.9 7.9,9 9,9 C9.96,9 10.761,9.68 10.95,10.58 C10.981,10.71 11,10.86 11,11 C11,11.98 10.29,12.79 9.36,12.97 C9.24,12.99 9.12,13 9,13 C7.9,13 7,12.1 7,11 L7,11 Z M15,5 C16.101,5 17,5.9 17,7 C17,8.1 16.101,9 15,9 C13.89,9 13,8.1 13,7 C13,5.9 13.89,5 15,5 L15,5 Z M19.24,10.76 C18.851,10.36 18.4,10.02 17.9,9.75 C18.58,9.03 19,8.06 19,7 C19,4.79 17.21,3 15,3 C12.79,3 11,4.79 11,7 C11,7.19 11.011,7.38 11.04,7.57 C10.44,7.21 9.74,7 9,7 C6.79,7 5,8.79 5,11 C5,12.06 5.421,13.03 6.101,13.75 C4.25,14.77 3,16.74 3,19 C3,19.55 3.22,20.05 3.58,20.41 C3.94,20.78 4.44,21 5,21 L13,21 C14.101,21 15,20.1 15,19 C15,18.3 14.88,17.63 14.65,17 L19,17 C20.101,17 21,16.1 21,15 C21,13.34 20.33,11.84 19.24,10.76 L19.24,10.76 Z" id="Fill-1" fill="#808080"></path>
            </g>
        </g>
    </g>
</svg>