<?xml version="1.0" encoding="UTF-8"?>
<svg width="20px" height="20px" viewBox="0 0 20 20" version="1.1" xmlns="http://www.w3.org/2000/svg" xmlns:xlink="http://www.w3.org/1999/xlink">
    <!-- Generator: Sketch 63.1 (92452) - https://sketch.com -->
    <title>Contacts</title>
    <desc>Created with Sketch.</desc>
    <g id="Design-System" stroke="none" stroke-width="1" fill="none" fill-rule="evenodd">
        <g id="Icons" transform="translate(-62.000000, -313.000000)">
            <g id="Contacts" transform="translate(60.000000, 311.000000)">
                <rect id="Rectangle-Copy-4" x="0" y="0" width="24" height="24"></rect>
                <path d="M14.98,12.67 C15.61,11.96 16,11.02 16,10 C16,7.79 14.209,6 12,6 C9.79,6 8,7.79 8,10 C8,11.02 8.389,11.96 9.019,12.67 C7.37,13.44 6.08,14.84 5.439,16.56 C4.53,15.27 4,13.69 4,12 C4,7.59 7.589,4 12,4 C16.41,4 20,7.59 20,12 C20,13.69 19.469,15.27 18.56,16.56 C17.919,14.84 16.629,13.44 14.98,12.67 M10,10 C10,8.9 10.9,8 12,8 C13.099,8 14,8.9 14,10 C14,11.1 13.099,12 12,12 C10.9,12 10,11.1 10,10 M12,20 C10.139,20 8.419,19.36 7.06,18.28 C7.4,15.86 9.48,14 12,14 C14.519,14 16.599,15.86 16.939,18.28 C15.58,19.36 13.86,20 12,20 M12,2 C6.48,2 2,6.48 2,12 C2,14.8 3.15,17.33 5.009,19.14 C5.7,19.82 6.49,20.4 7.349,20.85 C8.74,21.59 10.32,22 12,22 C13.679,22 15.259,21.59 16.65,20.85 C17.509,20.4 18.299,19.82 18.99,19.14 C20.849,17.33 22,14.8 22,12 C22,6.48 17.519,2 12,2" id="Fill-10" fill="rgb(97, 153, 139)"></path>
            </g>
        </g>
    </g>
</svg>