<svg width="28" height="28" viewBox="0 0 28 28" fill="none" xmlns="http://www.w3.org/2000/svg">
<g clip-path="url(#clip0)">
<path d="M0.875879 13.8134C1.81207 13.0419 3.29181 12.9757 4.263 14.018L6.67401 16.6062C6.98573 15.6043 7.92138 14.8749 9.02432 14.8749H13.3269C13.6533 14.8749 13.7627 14.7502 14.3298 14.3133C16.492 12.4283 19.7397 12.4343 21.8953 14.3313L23.4768 15.7236C24.1877 15.3473 25.0178 15.338 25.7325 15.6951L27.5464 16.6018C27.9517 16.8047 28.1157 17.2974 27.9134 17.7026L22.9918 27.5457C22.7889 27.951 22.2962 28.115 21.891 27.9127L20.0771 27.0055C19.183 26.5587 18.6854 25.6466 18.7177 24.7181L9.02437 24.7181C7.2269 24.7181 5.50928 23.8595 4.43089 22.4214L0.493067 17.1706C-0.270863 16.1529 -0.150003 14.6605 0.875879 13.8134ZM20.811 25.5383L21.891 26.0785L26.0793 17.7026L24.9987 17.1623C24.5935 16.96 24.1013 17.1235 23.8984 17.5293L20.444 24.4381C20.2417 24.8432 20.4058 25.3354 20.811 25.5383ZM1.80551 16.1862L5.74329 21.437C6.51378 22.4645 7.74036 23.0775 9.02432 23.0775L19.2902 23.0775L22.364 16.9294L20.8115 15.5628C19.2667 14.2039 16.9372 14.2039 15.3923 15.5628C14.4824 16.364 13.9164 16.5154 13.3269 16.5154H9.02437C8.57211 16.5154 8.20411 16.8835 8.20411 17.3357C8.20411 17.7879 8.57216 18.156 9.02437 18.156H13.2137C13.6665 18.156 14.034 18.5235 14.034 18.9762C14.034 19.429 13.6665 19.7965 13.2137 19.7965H8.47476C7.79396 19.7965 7.13771 19.511 6.67401 19.0128L3.06267 15.1363C2.73236 14.7819 2.226 14.8114 1.91538 15.0832C1.59059 15.3675 1.55554 15.8537 1.80551 16.1862Z" fill="black" fill-opacity="0.54"/>
<path d="M10.7524 5.59834C10.1908 5.00941 9.84463 4.21321 9.84463 3.33657C9.84463 1.5309 11.3036 0.000854492 13.1257 0.000854492C14.9341 0.000854492 16.4614 1.52817 16.4614 3.33657C16.4614 4.18636 16.1283 4.98857 15.5235 5.6049C17.0235 6.44594 18.1019 8.06021 18.1019 9.95338V10.7736C18.1019 11.2264 17.7344 11.5939 17.2816 11.5939L9.02432 11.5939C8.57156 11.5939 8.20406 11.2264 8.20406 10.7736V9.95338C8.20412 8.09739 9.22497 6.45797 10.7524 5.59834ZM13.1257 1.64142C12.2365 1.64142 11.4852 2.41793 11.4852 3.33663C11.4852 4.2411 12.2212 4.97714 13.1257 4.97714C14.0444 4.97714 14.8209 4.22579 14.8209 3.33663C14.8209 2.43379 14.0285 1.64142 13.1257 1.64142ZM16.4614 9.95338C16.4614 8.14497 14.9341 6.61766 13.1257 6.61766C11.3167 6.61766 9.84463 8.1138 9.84463 9.95338L16.4614 9.95338Z" fill="black" fill-opacity="0.54"/>
</g>
<defs>
<clipPath id="clip0">
<rect width="28" height="28" fill="white" transform="matrix(-1 0 0 1 28 0)"/>
</clipPath>
</defs>
</svg>
