<?xml version="1.0" encoding="UTF-8"?>
<svg width="16px" height="18px" viewBox="0 0 16 18" version="1.1" xmlns="http://www.w3.org/2000/svg" xmlns:xlink="http://www.w3.org/1999/xlink">
    <!-- Generator: Sketch 63.1 (92452) - https://sketch.com -->
    <title>Delegation</title>
    <desc>Created with Sketch.</desc>
    <g id="Design-System" stroke="none" stroke-width="1" fill="none" fill-rule="evenodd">
        <g id="Icons" transform="translate(-64.000000, -226.000000)">
            <g id="Delegation" transform="translate(60.000000, 223.000000)">
                <rect id="Rectangle-Copy-2" x="0" y="0" width="24" height="24"></rect>
                <path d="M8,11.0003 C8.55,11.0003 9,11.4503 9,12.0003 C9,12.5503 8.55,13.0003 8,13.0003 L8,13.0003 L6,13.0003 L6,19.0003 L18,19.0003 L18,13.0003 L16,13.0003 C15.45,13.0003 15,12.5503 15,12.0003 C15,11.4503 15.45,11.0003 16,11.0003 L16,11.0003 L18,11.0003 C19.1,11.0003 20,11.9003 20,13.0003 L20,13.0003 L20,19.0003 C20,20.1003 19.1,21.0003 18,21.0003 L18,21.0003 L6,21.0003 C4.9,21.0003 4,20.1003 4,19.0003 L4,19.0003 L4,13.0003 C4,11.9003 4.9,11.0003 6,11.0003 L6,11.0003 Z M11.9998,3 C12.1298,3 12.2598,3.03 12.3798,3.08 C12.4998,3.13 12.6108,3.2 12.7098,3.29 L12.7098,3.29 L12.7218,3.308 L16.9488,7.536 C17.3398,7.927 17.3398,8.559 16.9488,8.95 C16.7538,9.145 16.4978,9.243 16.2418,9.243 C15.9858,9.243 15.7308,9.145 15.5348,8.95 L15.5348,8.95 L12.9998,6.414 L12.9998,16 C12.9998,16.55 12.5498,17 11.9998,17 C11.4498,17 10.9998,16.55 10.9998,16 L10.9998,16 L10.9998,6.414 L8.4648,8.95 C8.0738,9.341 7.4418,9.341 7.0508,8.95 C6.6598,8.559 6.6598,7.927 7.0508,7.536 L7.0508,7.536 L11.2778,3.308 L11.2778,3.308 L11.2898,3.29 C11.3898,3.2 11.4998,3.13 11.6198,3.08 C11.7398,3.03 11.8698,3 11.9998,3 Z" id="Combined-Shape" fill="#7D7FBC"></path>
            </g>
        </g>
    </g>
</svg>