<?xml version="1.0" encoding="UTF-8"?>
<svg width="16px" height="20px" viewBox="0 0 16 20" version="1.1" xmlns="http://www.w3.org/2000/svg" xmlns:xlink="http://www.w3.org/1999/xlink">
    <!-- Generator: Sketch 63.1 (92452) - https://sketch.com -->
    <title>Documents</title>
    <desc>Created with Sketch.</desc>
    <g id="Design-System" stroke="none" stroke-width="1" fill="none" fill-rule="evenodd">
        <g id="Icons" transform="translate(-64.000000, -1413.000000)">
            <g id="Documents" transform="translate(60.000000, 1411.000000)">
                <rect id="Rectangle" x="0" y="0" width="24" height="24"></rect>
                <path d="M13.17,2 C13.701,2 14.211,2.21 14.58,2.59 L14.58,2.59 L15.99,4 L19.41,7.42 C19.791,7.79 20,8.3 20,8.83 L20,8.83 L20,20 C20,21.11 19.101,22 18,22 L18,22 L6,22 C4.891,22 4,21.11 4,20 L4,20 L4,4 C4,2.9 4.891,2 6,2 L6,2 Z M12,4 L6,4 L6,20 L18,20 L18,10 L14,10 C12.891,10 12,9.11 12,8 L12,8 L12,4 Z M14.9981,16.0029 C15.5511,16.0029 15.9981,16.4509 15.9981,17.0029 C15.9981,17.5549 15.5511,18.0029 14.9981,18.0029 L14.9981,18.0029 L8.9981,18.0029 C8.4451,18.0029 7.9981,17.5549 7.9981,17.0029 C7.9981,16.4509 8.4451,16.0029 8.9981,16.0029 L8.9981,16.0029 Z M14.9981,12.0029 C15.5511,12.0029 15.9981,12.4509 15.9981,13.0029 C15.9981,13.5549 15.5511,14.0029 14.9981,14.0029 L14.9981,14.0029 L8.9981,14.0029 C8.4451,14.0029 7.9981,13.5549 7.9981,13.0029 C7.9981,12.4509 8.4451,12.0029 8.9981,12.0029 L8.9981,12.0029 Z M14,4.83 L14,8 L17.17,8 L14,4.83 Z" id="Combined-Shape" fill="#808080"></path>
            </g>
        </g>
    </g>
</svg>