<?xml version="1.0" encoding="UTF-8"?>
<svg width="18px" height="18px" viewBox="0 0 18 18" version="1.1" xmlns="http://www.w3.org/2000/svg" xmlns:xlink="http://www.w3.org/1999/xlink">
    <!-- Generator: Sketch 63.1 (92452) - https://sketch.com -->
    <title>Filter</title>
    <desc>Created with Sketch.</desc>
    <g id="Design-System" stroke="none" stroke-width="1" fill="none" fill-rule="evenodd">
        <g id="Icons" transform="translate(-63.000000, -754.000000)">
            <g id="Filter" transform="translate(60.000000, 751.000000)">
                <rect id="Rectangle-Copy-47" x="0" y="0" width="24" height="24"></rect>
                <path d="M13.775,13.958 C13.267,14.856 13,15.876 13,16.908 L13,19 L11,19 L11,16.908 C11,15.876 10.732,14.856 10.224,13.958 L7.425,9 L16.574,9 L13.775,13.958 Z M5,7 L19,7 L19,5 L5,5 L5,7 Z M19,3 L5,3 C3.895,3 3,3.895 3,5 L3,7 C3,8.104 3.895,9 5,9 L5.129,9 L8.483,14.941 C8.822,15.541 9,16.219 9,16.908 L9,19 C9,20.104 9.895,21 11,21 L13,21 C14.104,21 15,20.104 15,19 L15,16.908 C15,16.219 15.177,15.541 15.516,14.941 L18.871,9 L19,9 C20.104,9 21,8.104 21,7 L21,5 C21,3.895 20.104,3 19,3 L19,3 Z" id="Fill-1" fill="#808080"></path>
            </g>
        </g>
    </g>
</svg>