<svg fill="#808080" xmlns="http://www.w3.org/2000/svg" viewBox="0 0 64 64" width="128px" height="128px"><path d="M 22.828125 4 C 21.757813 4 20.761719 4.578125 20.226563 5.507813 L 0.703125 39.507813 C 0.175781 40.429688 0.175781 41.570313 0.703125 42.496094 L 9.886719 58.492188 C 10.417969 59.421875 11.417969 60 12.488281 60 L 51.511719 60 C 52.582031 60 53.582031 59.421875 54.113281 58.492188 L 63.296875 42.492188 C 63.824219 41.570313 63.824219 40.429688 63.296875 39.503906 L 43.773438 5.507813 C 43.238281 4.578125 42.242188 4 41.171875 4 Z M 23.390625 6 L 41.171875 6 C 41.527344 6 41.859375 6.191406 42.039063 6.5 L 61.5625 40.5 C 61.738281 40.808594 61.738281 41.191406 61.5625 41.5 L 52.378906 57.496094 C 52.203125 57.808594 51.867188 58 51.511719 58 L 13.0625 58 L 22.246094 42 L 50 42 C 50.550781 42 51 41.554688 51 41 C 51 40.445313 50.550781 40 50 40 L 42.910156 40 Z M 21.667969 7.015625 L 23.230469 9.730469 C 23.023438 9.808594 22.835938 9.945313 22.714844 10.152344 C 22.4375 10.632813 22.601563 11.242188 23.078125 11.515625 L 24.8125 12.515625 C 24.820313 12.523438 24.824219 12.523438 24.832031 12.527344 L 30.847656 23 L 11.332031 56.996094 L 5.710938 47.203125 C 5.910156 47.121094 6.082031 46.984375 6.195313 46.785156 C 6.472656 46.308594 6.308594 45.699219 5.832031 45.421875 L 4.125 44.4375 L 2.4375 41.5 C 2.261719 41.191406 2.261719 40.8125 2.4375 40.503906 Z M 21.203125 13.984375 C 20.816406 13.9375 20.421875 14.121094 20.214844 14.480469 C 19.9375 14.957031 20.101563 15.570313 20.578125 15.84375 L 22.3125 16.84375 C 22.46875 16.9375 22.644531 16.980469 22.8125 16.980469 C 23.160156 16.980469 23.496094 16.800781 23.679688 16.480469 C 23.957031 16.003906 23.789063 15.390625 23.3125 15.113281 L 21.578125 14.113281 C 21.460938 14.042969 21.332031 14.003906 21.203125 13.984375 Z M 18.703125 18.316406 C 18.316406 18.269531 17.921875 18.453125 17.714844 18.8125 C 17.4375 19.289063 17.601563 19.898438 18.078125 20.175781 L 19.8125 21.175781 C 19.96875 21.265625 20.144531 21.3125 20.3125 21.3125 C 20.660156 21.3125 20.996094 21.128906 21.179688 20.8125 C 21.457031 20.332031 21.289063 19.71875 20.8125 19.441406 L 19.078125 18.441406 C 18.960938 18.375 18.832031 18.335938 18.703125 18.316406 Z M 16.203125 22.648438 C 15.816406 22.601563 15.421875 22.78125 15.214844 23.140625 C 14.9375 23.621094 15.101563 24.230469 15.578125 24.503906 L 17.3125 25.503906 C 17.46875 25.597656 17.644531 25.640625 17.8125 25.640625 C 18.160156 25.640625 18.496094 25.460938 18.679688 25.140625 C 18.957031 24.664063 18.789063 24.050781 18.3125 23.773438 L 16.578125 22.773438 C 16.460938 22.703125 16.332031 22.664063 16.203125 22.648438 Z M 32 25.011719 L 40.609375 40 L 23.394531 40 Z M 13.703125 26.976563 C 13.316406 26.929688 12.921875 27.113281 12.714844 27.46875 C 12.4375 27.949219 12.601563 28.558594 13.078125 28.835938 L 14.8125 29.835938 C 14.96875 29.925781 15.144531 29.96875 15.3125 29.96875 C 15.660156 29.96875 15.996094 29.789063 16.179688 29.46875 C 16.457031 28.992188 16.289063 28.378906 15.8125 28.105469 L 14.078125 27.105469 C 13.960938 27.035156 13.832031 26.992188 13.703125 26.976563 Z M 11.222656 31.304688 C 10.835938 31.257813 10.441406 31.441406 10.234375 31.796875 C 9.957031 32.277344 10.121094 32.886719 10.597656 33.164063 L 12.332031 34.164063 C 12.488281 34.253906 12.660156 34.296875 12.828125 34.296875 C 13.175781 34.296875 13.511719 34.121094 13.699219 33.796875 C 13.972656 33.320313 13.808594 32.707031 13.332031 32.433594 L 11.597656 31.433594 C 11.480469 31.363281 11.351563 31.320313 11.222656 31.304688 Z M 8.722656 35.636719 C 8.335938 35.585938 7.941406 35.769531 7.734375 36.128906 C 7.457031 36.609375 7.621094 37.21875 8.101563 37.496094 L 9.832031 38.496094 C 9.988281 38.585938 10.160156 38.628906 10.328125 38.628906 C 10.675781 38.628906 11.011719 38.449219 11.199219 38.128906 C 11.472656 37.648438 11.308594 37.039063 10.832031 36.761719 L 9.101563 35.761719 C 8.980469 35.691406 8.851563 35.652344 8.722656 35.636719 Z M 6.222656 39.964844 C 5.835938 39.917969 5.441406 40.097656 5.234375 40.457031 C 4.957031 40.9375 5.121094 41.546875 5.601563 41.824219 L 7.332031 42.824219 C 7.488281 42.914063 7.660156 42.957031 7.828125 42.957031 C 8.175781 42.957031 8.511719 42.777344 8.695313 42.457031 C 8.972656 41.976563 8.808594 41.367188 8.332031 41.09375 L 6.601563 40.09375 C 6.480469 40.023438 6.351563 39.980469 6.222656 39.964844 Z M 54 40 C 53.449219 40 53 40.445313 53 41 C 53 41.554688 53.449219 42 54 42 L 58 42 C 58.550781 42 59 41.554688 59 41 C 59 40.445313 58.550781 40 58 40 Z"/></svg>