<?xml version="1.0" encoding="UTF-8"?>
<svg width="20px" height="18px" viewBox="0 0 20 18" version="1.1" xmlns="http://www.w3.org/2000/svg" xmlns:xlink="http://www.w3.org/1999/xlink">
    <!-- Generator: Sketch 63.1 (92452) - https://sketch.com -->
    <title>History</title>
    <desc>Created with Sketch.</desc>
    <g id="Design-System" stroke="none" stroke-width="1" fill="none" fill-rule="evenodd">
        <g id="Icons" transform="translate(-62.000000, -798.000000)">
            <g id="History" transform="translate(60.000000, 795.000000)">
                <rect id="Rectangle-Copy-46" x="0" y="0" width="24" height="24"></rect>
                <path d="M13.00025,3 C17.96325,3 22.00025,7.038 22.00025,12 C22.00025,16.962 17.96325,21 13.00025,21 C11.04125,21 9.17925,20.381 7.61525,19.211 C7.17325,18.88 7.08225,18.254 7.41325,17.812 C7.74325,17.371 8.36925,17.279 8.81325,17.61 C10.02825,18.52 11.47725,19 13.00025,19 C16.85925,19 20.00025,15.86 20.00025,12 C20.00025,8.14 16.85925,5 13.00025,5 C9.28825,5 6.24925,7.907 6.02225,11.564 L6.02225,11.564 L6.29325,11.293 C6.68425,10.902 7.31625,10.902 7.70725,11.293 C8.09825,11.684 8.09825,12.316 7.70725,12.707 L7.70725,12.707 L5.70725,14.707 C5.51225,14.902 5.25625,15 5.00025,15 C4.74425,15 4.48825,14.902 4.29325,14.707 L4.29325,14.707 L2.29325,12.707 C1.90225,12.316 1.90225,11.684 2.29325,11.293 C2.68425,10.902 3.31625,10.902 3.70725,11.293 L3.70725,11.293 L4.02025,11.606 C4.22925,6.827 8.17025,3 13.00025,3 Z M13.00025,7 C13.55325,7 14.00025,7.448 14.00025,8 L14.00025,8 L14.00025,11.586 L15.82825,13.414 C16.21925,13.805 16.21925,14.437 15.82825,14.828 C15.63325,15.023 15.37725,15.121 15.12125,15.121 C14.86525,15.121 14.60925,15.023 14.41425,14.828 L14.41425,14.828 L12.29425,12.708 C12.20125,12.615 12.12825,12.504 12.07725,12.382 C12.02625,12.26 12.00025,12.13 12.00025,12 L12.00025,12 L12.00025,8 C12.00025,7.448 12.44725,7 13.00025,7 Z" id="Combined-Shape" fill="#808080"></path>
            </g>
        </g>
    </g>
</svg>