<?xml version="1.0" encoding="UTF-8"?>
<svg width="18px" height="18px" viewBox="0 0 18 18" version="1.1" xmlns="http://www.w3.org/2000/svg" xmlns:xlink="http://www.w3.org/1999/xlink">
    <!-- Generator: Sketch 63.1 (92452) - https://sketch.com -->
    <title>Insights</title>
    <desc>Created with Sketch.</desc>
    <g id="Design-System" stroke="none" stroke-width="1" fill="none" fill-rule="evenodd">
        <g id="Icons" transform="translate(-63.000000, -490.000000)">
            <g id="Insights" transform="translate(60.000000, 487.000000)">
                <rect id="Rectangle-Copy-8" x="0" y="0" width="24" height="24"></rect>
                <path d="M19,3 C20.104,3 21,3.896 21,5 L21,5 L21,19 C21,20.104 20.104,21 19,21 L19,21 L5,21 C3.896,21 3,20.104 3,19 L3,19 L3,5 C3,3.896 3.896,3 5,3 L5,3 Z M19,5 L5,5 L5,19 L19,19 L19,5 Z M8,11 C8.553,11 9,11.448 9,12 L9,12 L9,16 C9,16.552 8.553,17 8,17 C7.447,17 7,16.552 7,16 L7,16 L7,12 C7,11.448 7.447,11 8,11 Z M12,7 C12.553,7 13,7.448 13,8 L13,8 L13,16 C13,16.552 12.553,17 12,17 C11.447,17 11,16.552 11,16 L11,16 L11,8 C11,7.448 11.447,7 12,7 Z M16,9 C16.553,9 17,9.448 17,10 L17,10 L17,16 C17,16.552 16.553,17 16,17 C15.447,17 15,16.552 15,16 L15,16 L15,10 C15,9.448 15.447,9 16,9 Z" id="Combined-Shape" fill="#808080"></path>
            </g>
        </g>
    </g>
</svg>