<?xml version="1.0" encoding="UTF-8"?>
<svg width="16px" height="20px" viewBox="0 0 16 20" version="1.1" xmlns="http://www.w3.org/2000/svg" xmlns:xlink="http://www.w3.org/1999/xlink">
    <!-- Generator: Sketch 51.2 (57519) - http://www.bohemiancoding.com/sketch -->
    <title>Notificationsdark grey</title>
    <desc>Created with Sketch.</desc>
    <defs></defs>
    <g id="Symbols" stroke="none" stroke-width="1" fill="none" fill-rule="evenodd">
        <g id="Header" transform="translate(-1290.000000, -18.000000)" fill="#808080">
            <g id="Group-22" transform="translate(1280.000000, 10.000000)">
                <g id="Notifications" transform="translate(6.000000, 6.000000)">
                    <path d="M15.9980821,17 L8.00175957,17 L6.00267894,17 L6.60240313,16.2 L7.00221925,15.667 L7.00221925,15 L7.00221925,10 C7.00221925,7.243 9.24418818,5 11.9999208,5 C14.7556535,5 16.9976224,7.243 16.9976224,10 L16.9976224,15 L16.9976224,15.667 L17.3974385,16.2 L17.9971627,17 L15.9980821,17 Z M11.9999208,20 C11.2612605,20 10.6145579,19.597 10.2697165,19 L13.7301251,19 C13.3852837,19.597 12.7385811,20 11.9999208,20 Z M19.5964272,15.8 L18.996703,15 L18.996703,10 C18.996703,6.475 16.3889023,3.566 12.9994611,3.08 L12.9994611,3 C12.9994611,2.448 12.5526666,2 11.9999208,2 C11.447175,2 11.0003805,2.448 11.0003805,3 L11.0003805,3.08 C7.6109393,3.566 5.00313862,6.475 5.00313862,10 L5.00313862,15 L4.40341443,15.8 C3.41486906,17.119 4.3554365,19 6.00267894,19 L8.14469383,19 C8.59048881,20.72 10.1427749,22 11.9999208,22 C13.8570667,22 15.4093528,20.72 15.8551478,19 L17.9971627,19 C19.6444052,19 20.5849726,17.119 19.5964272,15.8 Z" id="Fill-1"></path>
                </g>
            </g>
        </g>
    </g>
</svg>