<?xml version="1.0" encoding="UTF-8"?>
<svg width="16px" height="20px" viewBox="0 0 16 20" version="1.1" xmlns="http://www.w3.org/2000/svg" xmlns:xlink="http://www.w3.org/1999/xlink">
    <!-- Generator: Sketch 63.1 (92452) - https://sketch.com -->
    <title>Orders</title>
    <desc>Created with Sketch.</desc>
    <g id="Design-System" stroke="none" stroke-width="1" fill="none" fill-rule="evenodd">
        <g id="Icons" transform="translate(-64.000000, -1545.000000)">
            <g id="Orders" transform="translate(60.000000, 1543.000000)">
                <rect id="Rectangle" x="0" y="0" width="24" height="24"></rect>
                <path d="M18,2.0001 C19.1,2.0001 20,2.9001 20,4.0001 L20,4.0001 L20,16.0001 C20,17.1041 19.104,18.0001 18,18.0001 L18,18.0001 L9.42,18.0001 L5.71,21.7101 C5.52,21.8901 5.28,22.0001 5,22.0001 C4.45,22.0001 4,21.5501 4,21.0001 L4,21.0001 L4,4.0001 C4,2.9001 4.9,2.0001 6,2.0001 L6,2.0001 Z M18,4.0001 L6,4.0001 L6,18.5911 L8.006,16.5851 C8.381,16.2101 8.89,16.0001 9.42,16.0001 L9.42,16.0001 L18,16.0001 L18,4.0001 Z M15,10.0001 C15.553,10.0001 16,10.4481 16,11.0001 C16,11.5521 15.553,12.0001 15,12.0001 L15,12.0001 L9,12.0001 C8.447,12.0001 8,11.5521 8,11.0001 C8,10.4481 8.447,10.0001 9,10.0001 L9,10.0001 Z M15,6.0001 C15.553,6.0001 16,6.4481 16,7.0001 C16,7.5521 15.553,8.0001 15,8.0001 L15,8.0001 L9,8.0001 C8.447,8.0001 8,7.5521 8,7.0001 C8,6.4481 8.447,6.0001 9,6.0001 L9,6.0001 Z" id="Combined-Shape" fill="#808080"></path>
            </g>
        </g>
    </g>
</svg>