<svg width="36" height="36" viewBox="0 0 36 36" fill="none" xmlns="http://www.w3.org/2000/svg">
<g id="people_outline_24px">
<path id="icon/social/people_outline_24px" fill-rule="evenodd" clip-rule="evenodd" d="M13.5 18C16.395 18 18.75 15.645 18.75 12.75C18.75 9.855 16.395 7.5 13.5 7.5C10.605 7.5 8.25 9.855 8.25 12.75C8.25 15.645 10.605 18 13.5 18ZM3 25.875C3 22.38 9.99 20.625 13.5 20.625C17.01 20.625 24 22.38 24 25.875V28.5H3V25.875ZM13.5 23.625C10.815 23.625 7.77004 24.63 6.51004 25.5H20.49C19.23 24.63 16.185 23.625 13.5 23.625ZM15.75 12.75C15.75 11.505 14.745 10.5 13.5 10.5C12.255 10.5 11.25 11.505 11.25 12.75C11.25 13.995 12.255 15 13.5 15C14.745 15 15.75 13.995 15.75 12.75ZM24.06 20.715C25.8 21.975 27 23.655 27 25.875V28.5H33V25.875C33 22.845 27.75 21.12 24.06 20.715ZM27.75 12.75C27.75 15.645 25.395 18 22.5 18C21.69 18 20.94 17.805 20.25 17.475C21.195 16.14 21.75 14.505 21.75 12.75C21.75 10.995 21.195 9.36 20.25 8.025C20.94 7.695 21.69 7.5 22.5 7.5C25.395 7.5 27.75 9.855 27.75 12.75Z" fill="black" fill-opacity="0.54"/>
</g>
</svg>
