<?xml version="1.0" encoding="UTF-8"?>
<svg width="20px" height="16px" viewBox="0 0 20 16" version="1.1" xmlns="http://www.w3.org/2000/svg" xmlns:xlink="http://www.w3.org/1999/xlink">
    <!-- Generator: Sketch 63.1 (92452) - https://sketch.com -->
    <title>Photos</title>
    <desc>Created with Sketch.</desc>
    <g id="Design-System" stroke="none" stroke-width="1" fill="none" fill-rule="evenodd">
        <g id="Icons" transform="translate(-62.000000, -1459.000000)">
            <g id="Photos" transform="translate(60.000000, 1455.000000)">
                <rect id="Rectangle" x="0" y="0" width="24" height="24"></rect>
                <path d="M20,4 C21.099,4 22,4.89 22,6 L22,6 L22,18 C22,18.57 21.76,19.09 21.37,19.45 C21.01,19.79 20.53,20 20,20 L20,20 L4,20 C2.93,20 2.05,19.14 2,18.08 L2,18.08 L2,6 C2,4.89 2.9,4 4,4 L4,4 Z M17.21,15.29 C16.82,14.9 16.18,14.9 15.79,15.29 L15.79,15.29 L14,17.08 L13.08,18 L19.92,18 Z M9.21,12.29 C8.82,11.9 8.18,11.9 7.79,12.29 L7.79,12.29 L4,16.08 L4,18 L10.26,18 L12.59,15.67 Z M20,6 L4,6 L4,13.26 L6.38,10.88 C7.55,9.71 9.45,9.71 10.62,10.88 L10.62,10.88 L14,14.26 L14.38,13.88 C15.55,12.71 17.45,12.71 18.62,13.88 L18.62,13.88 L20,15.26 L20,6 Z M16.4999,7.9962 C17.3279,7.9962 17.9999,8.6672 17.9999,9.4962 C17.9999,10.3252 17.3279,10.9962 16.4999,10.9962 C15.6719,10.9962 14.9999,10.3252 14.9999,9.4962 C14.9999,8.6672 15.6719,7.9962 16.4999,7.9962 Z" id="Combined-Shape" fill="#808080"></path>
            </g>
        </g>
    </g>
</svg>