<?xml version="1.0" encoding="UTF-8"?>
<svg width="16px" height="20px" viewBox="0 0 16 20" version="1.1" xmlns="http://www.w3.org/2000/svg" xmlns:xlink="http://www.w3.org/1999/xlink">
    <!-- Generator: Sketch 63.1 (92452) - https://sketch.com -->
    <title>Qualified deals</title>
    <desc>Created with Sketch.</desc>
    <g id="Design-System" stroke="none" stroke-width="1" fill="none" fill-rule="evenodd">
        <g id="Icons" transform="translate(-64.000000, -1589.000000)">
            <g id="Qualified-deals" transform="translate(60.000000, 1587.000000)">
                <rect id="Rectangle" x="0" y="0" width="24" height="24"></rect>
                <path d="M18.0001637,12.00025 C19.1001637,12.00025 20.0001637,12.89025 20.0001637,14.00025 L20.0001637,14.00025 L20.0001637,17.00025 C20.0001637,18.10025 19.1001637,19.00025 18.0001637,19.00025 L18.0001637,19.00025 L17.3501637,19.00025 C17.2791637,19.33025 17.1091637,19.64025 16.8501637,19.90025 L16.8501637,19.90025 L15.3501637,21.39025 C14.9791637,21.77025 14.4701637,21.98025 13.9391637,21.98025 L13.9391637,21.98025 L10.6001637,22.00025 L10.5901637,22.00025 C10.0701637,22.00025 9.56016372,21.79025 9.18016372,21.42025 L9.18016372,21.42025 L6.76016372,19.01025 L6.01016372,19.02025 C4.91016372,19.02025 4.01016372,18.13025 4.01016372,17.02025 L4.01016372,17.02025 L4.00008119,14.02025 C3.99016372,12.92025 4.89016372,12.02025 5.99016372,12.02025 L5.99016372,12.02025 L11.2401637,12.00025 Z M9.44916372,14.01025 L6.00016372,14.02025 L6.01016372,17.02025 L6.75016372,17.01025 L6.76016372,17.01025 C7.29016372,17.01025 7.80016372,17.22025 8.17016372,17.59025 L8.17016372,17.59025 L10.5901637,20.00025 L13.9301637,19.98025 L15.4391637,18.48025 L14.3301637,17.39025 L14.2601637,17.47025 C13.6701637,18.06025 12.9001637,18.35025 12.1401637,18.35025 C11.3691637,18.35025 10.6001637,18.06025 10.0101637,17.47025 C9.07016372,16.53025 8.89016372,15.13025 9.44916372,14.01025 L9.44916372,14.01025 Z M18.0001637,14.00025 L12.0701637,14.00025 L11.4301637,14.64025 C11.0401637,15.03025 11.0401637,15.67025 11.4301637,16.06025 C11.6801637,16.32025 11.9791637,16.35025 12.1401637,16.35025 C12.2901637,16.35025 12.5901637,16.32025 12.8401637,16.06025 L12.8401637,16.06025 L12.8901637,16.01025 C12.9001637,16.00025 12.9101637,15.99025 12.9201637,15.99025 C13.2901637,15.61025 13.7791637,15.40025 14.3101637,15.39025 L14.3101637,15.39025 L14.3301637,15.39025 C14.8591637,15.39025 15.3591637,15.60025 15.7401637,15.97025 L15.7401637,15.97025 L16.7791637,17.00025 L18.0001637,17.00025 L18.0001637,14.00025 Z M15.2911637,2.29325 C15.6821637,1.90225 16.3141637,1.90225 16.7051637,2.29325 C17.0961637,2.68425 17.0961637,3.31625 16.7051637,3.70725 L16.7051637,3.70725 L10.7051637,9.70725 C10.5101637,9.90225 10.2541637,10.00025 9.99816372,10.00025 C9.74216372,10.00025 9.48616372,9.90225 9.29116372,9.70725 L9.29116372,9.70725 L7.29116372,7.70725 C6.90016372,7.31625 6.90016372,6.68425 7.29116372,6.29325 C7.68216372,5.90225 8.31416372,5.90225 8.70516372,6.29325 L8.70516372,6.29325 L9.99816372,7.58625 Z" id="Combined-Shape" fill="#808080"></path>
            </g>
        </g>
    </g>
</svg>