<svg width="29" height="29" viewBox="0 0 29 29" fill="none" xmlns="http://www.w3.org/2000/svg">
<path d="M20.7305 19.8242H8.26953C7.80032 19.8242 7.41992 20.2046 7.41992 20.6738C7.41992 21.143 7.80032 21.5234 8.26953 21.5234H20.7305C21.1997 21.5234 21.5801 21.143 21.5801 20.6738C21.5801 20.2046 21.1997 19.8242 20.7305 19.8242Z" fill="black" fill-opacity="0.35"/>
<path d="M20.7305 23.2227H8.26953C7.80032 23.2227 7.41992 23.6031 7.41992 24.0723C7.41992 24.5415 7.80032 24.9219 8.26953 24.9219H20.7305C21.1997 24.9219 21.5801 24.5415 21.5801 24.0723C21.5801 23.6031 21.1997 23.2227 20.7305 23.2227Z" fill="black" fill-opacity="0.35"/>
<path d="M15.3496 17.2754C15.3496 17.7446 15.73 18.125 16.1992 18.125H20.7305C21.1997 18.125 21.5801 17.7446 21.5801 17.2754C21.5801 16.8062 21.1997 16.4258 20.7305 16.4258H16.1992C15.73 16.4258 15.3496 16.8062 15.3496 17.2754Z" fill="black" fill-opacity="0.35"/>
<path d="M24.1289 0H8.05146C7.82609 0 7.61001 0.0895488 7.45073 0.248879L4.27036 3.42925C4.11098 3.58858 4.02148 3.80466 4.02148 4.02998V28.1504C4.02148 28.6196 4.40188 29 4.87109 29H24.1289C24.5981 29 24.9785 28.6196 24.9785 28.1504V0.849609C24.9785 0.380398 24.5981 0 24.1289 0ZM23.2793 27.3008H5.7207V4.38195L8.40337 1.69922H23.2793V27.3008Z" fill="black" fill-opacity="0.35"/>
<path d="M12.299 10.9985C11.8304 10.9985 11.4604 11.615 11.4604 12.0343C11.4604 12.8235 12.6688 13.5879 14.1485 13.6373V13.9455C14.1485 14.1182 14.3458 14.2785 14.617 14.2785C14.8514 14.2785 15.0856 14.1182 15.0856 13.9455V13.5879C16.5283 13.3537 17.5147 12.4289 17.5147 10.8999C17.5147 9.23529 16.2077 8.65574 15.0856 8.23649V6.43622C15.887 6.49785 16.1213 6.89246 16.5283 6.89246C17.0708 6.89246 17.2927 6.2143 17.2927 5.88137C17.2927 5.03057 15.85 4.83329 15.0856 4.80865V4.50041C15.0856 4.32777 14.8513 4.16748 14.617 4.16748C14.3458 4.16748 14.1485 4.32777 14.1485 4.50041V4.84564C12.8415 5.03063 11.6824 5.78276 11.6824 7.34876C11.6824 8.92705 13.0141 9.45726 14.1485 9.88886V11.8864C13.236 11.726 12.8168 10.9985 12.299 10.9985ZM14.9623 10.2217C15.4062 10.4313 15.7144 10.6902 15.7144 11.0972C15.7144 11.5411 15.3815 11.7754 14.9623 11.874V10.2217ZM13.4826 7.16377C13.4826 6.86782 13.717 6.58422 14.2718 6.47326V7.9406C13.8032 7.74326 13.4826 7.52134 13.4826 7.16377Z" fill="black" fill-opacity="0.35"/>
</svg>
