<?xml version="1.0" standalone="no"?>
<!DOCTYPE svg PUBLIC "-//W3C//DTD SVG 20010904//EN"
 "http://www.w3.org/TR/2001/REC-SVG-20010904/DTD/svg10.dtd">
<svg version="1.0" xmlns="http://www.w3.org/2000/svg"
 width="128.000000pt" height="128.000000pt" viewBox="0 0 128.000000 128.000000"
 preserveAspectRatio="xMidYMid meet">
<g transform="translate(0.000000,128.000000) scale(0.100000,-0.100000)"
fill="#000000" stroke="none">
<path d="M593 956 c-84 -27 -159 -91 -187 -158 -23 -54 -20 -139 5 -193 19
-40 96 -121 106 -111 2 1 -6 23 -17 47 -43 96 -16 200 71 269 63 49 108 64
194 65 73 0 133 -18 187 -56 38 -28 35 -11 -7 39 -53 61 -147 104 -238 108
-43 2 -89 -2 -114 -10z"/>
<path d="M625 739 c-144 -42 -114 -259 35 -259 78 0 133 56 133 137 0 88 -82
148 -168 122z"/>
<path d="M821 688 c44 -87 18 -206 -59 -266 -74 -59 -100 -67 -202 -67 -97 0
-150 16 -202 63 -12 10 -18 11 -18 3 0 -22 94 -106 145 -130 135 -64 299 -33
393 74 37 42 62 104 62 153 0 50 -33 125 -74 167 -55 58 -73 59 -45 3z"/>
</g>
</svg>
