<svg width="600.578" height="142.471" xmlns="http://www.w3.org/2000/svg" xmlns:xlink="http://www.w3.org/1999/xlink">
 <g>
  <title>background</title>
  <rect fill="none" id="canvas_background" height="144.471" width="602.578" y="-1" x="-1"/>
 </g>
 <g>
  <title>Layer 1</title>
  <g id="svg_1">
   <defs transform="translate(128,0) translate(-145,4) ">
    <rect height="142.471" width="713.578" id="SVGID_1_"/>
   </defs>
   <clipPath transform="translate(128,0) translate(-145,4) " id="SVGID_2_">
    <use x="-17" y="4" id="svg_2" xlink:href="#SVGID_1_"/>
   </clipPath>
   <path id="svg_3" d="m38.287,63.005c0,-7.615 6.09,-10.66 15.229,-10.66l12.197,0c1.677,0 3.036,-1.359 3.036,-3.036l0,-0.803c0,-1.367 -0.908,-2.563 -2.226,-2.928c-4.575,-1.267 -10.864,-2.372 -16.052,-2.372c-16.754,0 -25.892,4.57 -25.892,19.799c0,30.463 33.507,19.803 33.507,38.08c0,9.135 -6.091,12.184 -16.754,12.184l-12.194,0c-1.676,0 -3.036,1.359 -3.036,3.035l0,0.804c0,1.366 0.908,2.562 2.226,2.928c4.575,1.268 10.864,2.372 16.049,2.372c18.278,0 27.417,-4.568 27.417,-21.322c0,-30.463 -33.507,-19.803 -33.507,-38.081m93.261,47.215c-2.285,1.525 -6.855,3.049 -10.664,3.049c-7.614,0 -13.708,-3.049 -13.708,-13.707c0,-10.663 6.094,-13.709 13.708,-13.709l7.628,0c1.677,0 3.036,1.359 3.036,3.035l0,21.332zm-18.278,-32.746c-10.664,0 -19.799,4.57 -19.799,22.088c0,18.277 9.135,22.846 19.799,22.846c7.614,0 12.184,-1.523 18.278,-6.093l0.76,0l0.338,2.031c0.244,1.464 1.51,2.538 2.995,2.538l6.579,0c1.677,0 3.036,-1.358 3.036,-3.036l0,-48.748c0,-21.323 -9.139,-25.893 -27.417,-25.893c-5.22,0 -11.556,1.119 -16.138,2.396c-1.265,0.352 -2.14,1.497 -2.14,2.811l0,0.775c0,1.798 1.36,3.157 3.036,3.157l12.197,0c10.66,0 16.754,3.045 16.754,16.754l0,6.4c0,1.826 -1.597,3.236 -3.408,3.005c-4.437,-0.566 -10.117,-1.031 -14.87,-1.031m60.514,43.41l10.672,0c1.677,0 3.036,-1.358 3.036,-3.036l0,-100.543c0,-1.676 -1.359,-3.035 -3.036,-3.035l-7.637,0c-1.676,0 -3.035,1.359 -3.035,3.035l0,103.579zm67.368,-77.677c-16.755,0 -25.894,9.139 -25.894,42.646c0,27.416 9.139,36.555 30.462,36.555c5.188,0 11.479,-1.104 16.053,-2.372c1.317,-0.365 2.226,-1.562 2.226,-2.928l0,-0.804c0,-1.676 -1.359,-3.035 -3.036,-3.035l-12.193,0c-13.016,0 -19.167,-5.493 -19.755,-24.298c-0.054,-1.706 1.33,-3.118 3.037,-3.118l31.927,0c1.698,0 3.069,-1.4 3.038,-3.098c-0.557,-30.977 -9.64,-39.548 -25.865,-39.548m12.184,33.507l-21.275,0c-1.731,0 -3.101,-1.45 -3.032,-3.182c0.646,-16.543 6.386,-21.951 12.124,-21.951c6.093,0.001 12.183,6.094 12.183,25.133m50.618,-13.709c0,-7.615 6.09,-10.66 15.229,-10.66l12.197,0c1.676,0 3.035,-1.359 3.035,-3.036l0,-0.803c0,-1.367 -0.908,-2.563 -2.226,-2.928c-4.574,-1.267 -10.863,-2.372 -16.052,-2.372c-16.754,0 -25.892,4.57 -25.892,19.799c0,30.463 33.506,19.803 33.506,38.08c0,9.135 -6.089,12.184 -16.754,12.184l-12.193,0c-1.676,0 -3.036,1.359 -3.036,3.035l0,0.804c0,1.366 0.908,2.562 2.227,2.928c4.575,1.268 10.864,2.372 16.049,2.372c18.278,0 27.417,-4.568 27.417,-21.322c0,-30.463 -33.507,-19.803 -33.507,-38.081m82.597,59.403c19.802,0 28.942,-9.139 28.942,-39.6c0,-30.462 -9.141,-39.602 -21.324,-39.602c-5.665,0 -9.644,0.843 -13.817,3.153c-2.003,1.109 -4.461,-0.388 -4.461,-2.678l0,-26.376c0,-1.676 -1.358,-3.035 -3.036,-3.035l-7.636,0c-1.677,0 -3.036,1.359 -3.036,3.035l0,98.444c0,1.291 0.822,2.427 2.036,2.868c6.947,2.526 14.008,3.791 22.332,3.791m-10.66,-67.017c2.285,-1.524 6.855,-3.045 10.66,-3.045c9.139,0 15.233,6.091 15.233,30.462c0,24.367 -6.095,30.461 -15.233,30.461l-7.624,0c-1.677,0 -3.036,-1.359 -3.036,-3.035l0,-54.843zm92.497,58.64c-8.375,0 -14.469,-6.094 -14.469,-31.223c0,-25.133 6.094,-31.227 14.469,-31.227c8.378,0 14.469,6.094 14.469,31.227c-0.001,25.129 -6.091,31.223 -14.469,31.223m0,-70.824c-19.038,0 -28.177,9.139 -28.177,39.602c0,30.461 9.139,39.6 28.177,39.6s28.178,-9.139 28.178,-39.6c-0.001,-30.463 -9.14,-39.602 -28.178,-39.602m73.462,30.462l-10.665,-27.017c-0.458,-1.16 -1.578,-1.922 -2.823,-1.922l-7.039,0c-2.18,0 -3.649,2.229 -2.79,4.232l13.63,31.801c0.349,0.813 0.325,1.738 -0.064,2.532l-16.282,33.217c-0.988,2.018 0.479,4.372 2.726,4.372l6.918,0c1.172,0 2.239,-0.675 2.742,-1.732l10.906,-22.958c1.098,-2.311 4.387,-2.311 5.484,0.001l10.903,22.956c0.503,1.059 1.57,1.733 2.743,1.733l6.92,0c2.246,0 3.714,-2.354 2.726,-4.372l-16.282,-33.217c-0.389,-0.794 -0.413,-1.719 -0.063,-2.532l13.627,-31.801c0.858,-2.003 -0.61,-4.232 -2.79,-4.232l-7.036,0c-1.246,0 -2.366,0.762 -2.824,1.922l-10.667,27.017z" fill="#173849" clip-path="url(#SVGID_2_)"/>
  </g>
 </g>
</svg>