<svg width="12" height="22" viewBox="0 0 12 22" fill="none" xmlns="http://www.w3.org/2000/svg">
<path d="M6.45534 9.71667C3.80701 9.02833 2.95534 8.31667 2.95534 7.20833C2.95534 5.93667 4.13368 5.05 6.10534 5.05C8.18201 5.05 8.95201 6.04167 9.02201 7.5H11.6003C11.5187 5.49333 10.2937 3.65 7.85534 3.055V0.5H4.35534V3.02C2.09201 3.51 0.272012 4.98 0.272012 7.23167C0.272012 9.92667 2.50034 11.2683 5.75534 12.05C8.67201 12.75 9.25534 13.7767 9.25534 14.8617C9.25534 15.6667 8.68368 16.95 6.10534 16.95C3.70201 16.95 2.75701 15.8767 2.62868 14.5H0.0620117C0.202012 17.055 2.11534 18.49 4.35534 18.9683V21.5H7.85534V18.9917C10.1303 18.56 11.9387 17.2417 11.9387 14.85C11.9387 11.5367 9.10368 10.405 6.45534 9.71667Z" fill="black" fill-opacity="0.54"/>
</svg>
