<?xml version="1.0" encoding="UTF-8"?>
<svg width="14px" height="14px" viewBox="0 0 14 14" version="1.1" xmlns="http://www.w3.org/2000/svg" xmlns:xlink="http://www.w3.org/1999/xlink">
    <!-- Generator: Sketch 51.2 (57519) - http://www.bohemiancoding.com/sketch -->
    <title>Fill 1</title>
    <desc>Created with Sketch.</desc>
    <defs></defs>
    <g id="Symbols" stroke="none" stroke-width="1" fill="none" fill-rule="evenodd">
        <g id="Header" transform="translate(-895.000000, -21.000000)" fill="#FFFFFF">
            <g id="Group-20" transform="translate(520.000000, 10.000000)">
                <g id="Group-24" transform="translate(367.000000, 3.000000)">
                    <path d="M13.8332523,18.1111111 C11.4742851,18.1111111 9.55553395,16.1923333 9.55553395,13.8333333 C9.55553395,11.4743333 11.4742851,9.55555556 13.8332523,9.55555556 C16.1922196,9.55555556 18.1109707,11.4743333 18.1109707,13.8333333 C18.1109707,16.1923333 16.1922196,18.1111111 13.8332523,18.1111111 M21.7719198,20.6723333 L18.4664102,17.3667778 C19.2161776,16.386 19.6665046,15.1633333 19.6665046,13.8333333 C19.6665046,10.6117778 17.0555409,8 13.8332523,8 C10.6109637,8 8,10.6117778 8,13.8333333 C8,17.0548889 10.6109637,19.6666667 13.8332523,19.6666667 C15.1632338,19.6666667 16.3851058,19.2163333 17.3666477,18.4673333 L20.6721573,21.7721111 C20.8238219,21.9237778 21.0229302,22 21.2220386,22 C21.4211469,22 21.6202553,21.9237778 21.7719198,21.7721111 C22.0760267,21.468 22.0760267,20.9764444 21.7719198,20.6723333" id="Fill-1"></path>
                </g>
            </g>
        </g>
    </g>
</svg>