<?xml version="1.0" encoding="UTF-8"?>
<svg width="20px" height="20px" viewBox="0 0 20 20" version="1.1" xmlns="http://www.w3.org/2000/svg" xmlns:xlink="http://www.w3.org/1999/xlink">
    <!-- Generator: Sketch 63.1 (92452) - https://sketch.com -->
    <title>Settings</title>
    <desc>Created with Sketch.</desc>
    <g id="Design-System" stroke="none" stroke-width="1" fill="none" fill-rule="evenodd">
        <g id="Icons" transform="translate(-62.000000, -533.000000)">
            <g id="Settings" transform="translate(60.000000, 531.000000)">
                <rect id="Rectangle-Copy-9" x="0" y="0" width="24" height="24"></rect>
                <path d="M13.0853507,2 C14.0033507,2 14.8033507,2.624 15.0263507,3.514 L15.0263507,3.514 L15.3783507,4.926 C15.5583507,5.021 15.7303507,5.126 15.9013507,5.233 L15.9013507,5.233 L17.3063507,4.831 C17.4883507,4.779 17.6733507,4.754 17.8563507,4.754 C18.5573507,4.754 19.2243507,5.124 19.5883507,5.754 L19.5883507,5.754 L21.0263507,8.245 C21.4853507,9.04 21.3443507,10.045 20.6843507,10.683 L20.6843507,10.683 L19.6313507,11.701 C19.6353507,11.801 19.6473507,11.899 19.6473507,12 C19.6473507,12.1 19.6353507,12.198 19.6313507,12.298 L19.6313507,12.298 L20.6843507,13.316 C21.3443507,13.954 21.4853507,14.959 21.0263507,15.754 L21.0263507,15.754 L19.5883507,18.245 C19.2243507,18.876 18.5573507,19.246 17.8563507,19.246 C17.6733507,19.246 17.4883507,19.22 17.3063507,19.168 L17.3063507,19.168 L15.9013507,18.766 C15.7303507,18.874 15.5583507,18.979 15.3783507,19.073 L15.3783507,19.073 L15.0263507,20.485 C14.8033507,21.375 14.0033507,22 13.0853507,22 L13.0853507,22 L10.2083507,22 C9.2903507,22 8.4903507,21.375 8.2683507,20.485 L8.2683507,20.485 L7.9153507,19.073 C7.7363507,18.979 7.5643507,18.874 7.3933507,18.766 L7.3933507,18.766 L5.9873507,19.168 C5.8053507,19.22 5.6203507,19.246 5.4383507,19.246 C4.7373507,19.246 4.0703507,18.876 3.7053507,18.245 L3.7053507,18.245 L2.2683507,15.754 C1.8093507,14.959 1.9493507,13.954 2.6103507,13.316 L2.6103507,13.316 L3.6623507,12.298 C3.6583507,12.198 3.6473507,12.1 3.6473507,12 C3.6473507,11.899 3.6583507,11.801 3.6623507,11.701 L3.6623507,11.701 L2.6103507,10.683 C1.9493507,10.045 1.8093507,9.04 2.2683507,8.245 L2.2683507,8.245 L3.7053507,5.754 C4.0703507,5.124 4.7373507,4.754 5.4383507,4.754 C5.6203507,4.754 5.8053507,4.779 5.9873507,4.831 L5.9873507,4.831 L7.3933507,5.233 C7.5643507,5.126 7.7363507,5.021 7.9153507,4.926 L7.9153507,4.926 L8.2683507,3.514 C8.4903507,2.624 9.2903507,2 10.2083507,2 L10.2083507,2 Z M13.0853507,4 L10.2083507,4 L9.8563507,5.411 L9.6393507,6.277 L8.8503507,6.694 C8.7153507,6.765 8.5863507,6.844 8.4583507,6.925 L8.4583507,6.925 L7.7023507,7.402 L6.8433507,7.156 L5.4383507,6.754 L3.9993507,9.245 L5.0523507,10.263 L5.6953507,10.884 L5.6603507,11.777 C5.6583507,11.838 5.6543507,11.898 5.6513507,11.958 L5.6513507,11.958 L5.6473507,12.015 L5.6513507,12.042 C5.6543507,12.102 5.6583507,12.162 5.6603507,12.222 L5.6603507,12.222 L5.6953507,13.115 L5.0523507,13.736 L3.9993507,14.754 L5.4383507,17.245 L6.8433507,16.843 L7.7023507,16.597 L8.4593507,17.074 C8.5873507,17.155 8.7153507,17.234 8.8503507,17.305 L8.8503507,17.305 L9.6393507,17.722 L9.8563507,18.588 L10.2083507,20 L13.0853507,20 L13.4383507,18.588 L13.6543507,17.722 L14.4443507,17.305 C14.5783507,17.234 14.7063507,17.155 14.8343507,17.074 L14.8343507,17.074 L15.5913507,16.597 L16.4503507,16.843 L17.8563507,17.245 L19.2943507,14.754 L18.2413507,13.736 L17.5993507,13.115 L17.6333507,12.222 C17.6353507,12.162 17.6393507,12.102 17.6433507,12.042 L17.6433507,12.042 L17.6473507,11.984 L17.6433507,11.958 C17.6393507,11.898 17.6353507,11.838 17.6333507,11.777 L17.6333507,11.777 L17.5993507,10.884 L18.2413507,10.263 L19.2943507,9.245 L17.8563507,6.754 L16.4503507,7.156 L15.5913507,7.402 L14.8353507,6.925 C14.7073507,6.844 14.5783507,6.765 14.4443507,6.694 L14.4443507,6.694 L13.6543507,6.277 L13.4383507,5.411 L13.0853507,4 Z M11.6470507,7.9997 C13.8560507,7.9997 15.6470507,9.7907 15.6470507,11.9997 C15.6470507,14.2087 13.8560507,15.9997 11.6470507,15.9997 C9.4380507,15.9997 7.6470507,14.2087 7.6470507,11.9997 C7.6470507,9.7907 9.4380507,7.9997 11.6470507,7.9997 Z M11.6470507,9.9997 C10.5440507,9.9997 9.6470507,10.8967 9.6470507,11.9997 C9.6470507,13.1027 10.5440507,13.9997 11.6470507,13.9997 C12.7500507,13.9997 13.6470507,13.1027 13.6470507,11.9997 C13.6470507,10.8967 12.7500507,9.9997 11.6470507,9.9997 Z" id="Combined-Shape" fill="#808080"></path>
            </g>
        </g>
    </g>
</svg>