<?xml version="1.0" encoding="UTF-8"?>
<svg width="18px" height="18px" viewBox="0 0 18 18" version="1.1" xmlns="http://www.w3.org/2000/svg" xmlns:xlink="http://www.w3.org/1999/xlink">
    <!-- Generator: Sketch 63.1 (92452) - https://sketch.com -->
    <title>Star Little</title>
    <desc>Created with Sketch.</desc>
    <g id="Design-System" stroke="none" stroke-width="1" fill="none" fill-rule="evenodd">
        <g id="Icons" transform="translate(-63.000000, -1194.000000)">
            <g id="Star-Little" transform="translate(60.000000, 1191.000000)">
                <rect id="Rectangle" x="0" y="0" width="24" height="24"></rect>
                <path d="M12.0001995,3.38 C11.6161995,3.38 11.2321995,3.58 11.0351995,3.98 L8.83719954,8.433 L3.92319954,9.147 C3.04019954,9.276 2.68719954,10.36 3.32619954,10.983 L6.88319954,14.449 L6.04319954,19.344 C5.92419954,20.04 6.47719954,20.605 7.10419954,20.605 C7.26919954,20.605 7.43919954,20.565 7.60419954,20.478 L12.0001995,18.168 L16.3961995,20.478 C16.5611995,20.565 16.7311995,20.605 16.8961995,20.605 C17.5231995,20.605 18.0761995,20.04 17.9571995,19.344 L17.1171995,14.449 L20.6741995,10.983 C21.3131995,10.36 20.9601995,9.276 20.0771995,9.147 L15.1631995,8.433 L12.9651995,3.98 C12.7681995,3.58 12.3841995,3.38 12.0001995,3.38 M12.0001995,6.544 L13.3691995,9.318 L13.8351995,10.261 L14.8751995,10.412 L17.9371995,10.857 L15.7221995,13.017 L14.9691995,13.751 L15.1461995,14.787 L15.6701995,17.837 L12.9311995,16.397 L12.0001995,15.908 L11.0691995,16.397 L8.33019954,17.837 L8.85419954,14.787 L9.03119954,13.751 L8.27819954,13.017 L6.06319954,10.857 L9.12519954,10.412 L10.1651995,10.261 L10.6311995,9.318 L12.0001995,6.544" id="Fill-1" fill="#808080"></path>
            </g>
        </g>
    </g>
</svg>