<?xml version="1.0" encoding="utf-8"?>
<!-- Svg Vector Icons : http://www.onlinewebfonts.com/icon -->
<!DOCTYPE svg PUBLIC "-//W3C//DTD SVG 1.1//EN" "http://www.w3.org/Graphics/SVG/1.1/DTD/svg11.dtd">
<svg version="1.1" xmlns="http://www.w3.org/2000/svg" xmlns:xlink="http://www.w3.org/1999/xlink" x="0px" y="0px" viewBox="0 0 1000 1000" enable-background="new 0 0 1000 1000" xml:space="preserve">
<metadata> Svg Vector Icons : http://www.onlinewebfonts.com/icon </metadata>
<g><g fill="#808080"><path d="M909,499.8c0,11.4-0.4,22.6-1.3,33.9c-0.4,5.6-0.9,11.2-1.5,16.7c-0.3,2.8-0.7,5.5-1,8.3c1.6-12.4-0.2,0.4-0.5,3c-3.6,22.5-9.1,44.7-16.1,66.4c-3.3,10.3-7.1,20.4-11.1,30.4c-3.6,8.8,3.7-8.5-0.1,0.2c-1.1,2.5-2.1,4.9-3.3,7.3c-2.6,5.7-5.3,11.3-8.1,16.9c-10,19.8-21.6,38.7-34.4,56.9c-3.1,4.4-6.3,8.6-9.5,12.8c7.4-9.7-3.3,3.9-5.2,6.3c-7.3,8.8-15,17.3-23,25.6c-7.3,7.6-15,14.9-22.9,22c-3.9,3.6-8,7-12,10.4c-2,1.7-4.1,3.4-6.2,5c-1.4,1.1-2.8,2.2-4.2,3.3c4.7-3.7,5.4-4.1,1.9-1.5c-17.6,13.4-36.4,25.4-55.7,36.1c-9.4,5.1-19,9.9-28.7,14.4c-2.5,1.1-4.9,2.2-7.4,3.2c-8.7,3.8,8.6-3.5-0.2,0.1c-5.8,2.4-11.7,4.6-17.6,6.7c-21.4,7.7-43.4,13.6-65.6,18c-5.4,1.1-10.8,2-16.3,2.9c-2.3,0.4-12,1.7-0.2,0.1c-2.8,0.4-5.5,0.7-8.3,1c-12.1,1.4-24.3,2.2-36.5,2.6c-23.5,0.8-47.1-0.4-70.4-3.3c-9.8-1.2,9.5,1.3-0.2-0.1c-2.7-0.4-5.5-0.8-8.2-1.3c-5.4-0.9-10.8-2-16.2-3c-11.6-2.4-23.1-5.3-34.5-8.6c-10.4-3-20.7-6.5-30.8-10.2c-5-1.9-10-3.8-15-5.9c10.6,4.4,1.9,0.8-0.2-0.1c-3.3-1.4-6.5-3-9.7-4.5c-20.1-9.4-39.4-20.5-57.9-32.8c-4.4-3-8.8-6-13.1-9.1c-2.4-1.7-16.3-12.3-6.6-4.8c-9-7.1-17.8-14.6-26.2-22.3c-16.3-14.8-31.4-31-45.3-48.1c-1.7-2.1-3.3-4.1-5-6.2c7,8.9,1.2,1.6-0.1-0.2c-3.2-4.2-6.3-8.6-9.3-12.9c-6.6-9.5-12.7-19.2-18.6-29.1c-5.4-9.2-10.4-18.6-15.2-28.2c-2.4-4.7-4.7-9.7-6.9-14.5c-1.1-2.5-2.2-4.9-3.2-7.4c4.8,11.2-0.1-0.5-1-2.8c-8.3-21-14.9-42.7-19.9-64.8c-2.5-10.7-4.4-21.6-6.1-32.5c-1.5-9.7,1.2,9.5-0.1-0.2c-0.4-2.8-0.6-5.5-1-8.3c-0.7-6.4-1.2-13.1-1.6-19.5c-1.5-23.5-1-47.2,1.1-70.7c0.5-5.5,1.2-11.1,1.9-16.6c-1.6,12.7,0.9-5.3,1.5-8.4c2-11.7,4.6-23.3,7.5-34.8c2.7-10.5,5.8-20.9,9.3-31.2c1.7-5.1,3.6-10.2,5.4-15.3c0.9-2.5,1.9-5,2.9-7.5c0.7-1.7,1.3-3.3,2-5c-2.3,5.5-2.7,6.3-0.9,2.2c8.8-20.4,19.3-40.1,31.1-59c5.6-9,11.6-17.8,17.8-26.4c1.6-2.1,3.1-4.3,4.7-6.4c5.6-7.5-5.6,7.2,0.2-0.2c3.8-4.9,7.8-9.6,11.8-14.3c14.4-16.7,30.1-32.3,46.7-46.7c4-3.5,8.1-6.9,12.2-10.2c1.8-1.4,9.1-7.2,0.1-0.2c2.1-1.6,4.2-3.2,6.3-4.8c9.2-6.9,18.8-13.3,28.5-19.4c18.8-11.9,38.6-22.2,59-31.1c8.7-3.8-8.6,3.5,0.2-0.1c2.5-1,5-2,7.5-3c5-2,10.1-3.8,15.2-5.5c11.1-3.9,22.4-7.2,33.8-10.2c10.6-2.8,21.3-5.1,32.1-7.1c5.4-1,10.9-1.9,16.4-2.7c-11.8,1.7-2.1,0.3,0.3,0c3.7-0.5,7.4-0.8,11.1-1.2c23.5-2.3,47.1-2.5,70.7-1.1c5.6,0.3,11.2,0.8,16.8,1.4c3.1,0.3,21.3,2.7,8.6,0.9c11.8,1.7,23.6,3.9,35.2,6.5c22.1,4.9,43.7,11.7,64.8,19.9c2.5,1,5,2,7.5,3c-10.6-4.4-1.9-0.8,0.2,0.1c4.9,2.2,9.8,4.4,14.6,6.8c10.4,5,20.6,10.6,30.6,16.4c9.2,5.4,18.1,11.1,26.9,17.1c4.4,3,8.7,6.1,13,9.2c2.1,1.5,4.2,3.2,6.3,4.8c-9.6-7.2,0.3,0.4,2.2,1.9c17.2,13.9,33.2,29.1,48.1,45.4c7.2,7.8,14,15.9,20.6,24.2c5.8,7.3-5.5-7.3,0.2,0.2c1.6,2.1,3.2,4.3,4.7,6.4c3.7,5,7.2,10.1,10.6,15.2c12.4,18.4,23.2,37.9,32.8,57.9c2.3,4.8,4.5,9.7,6.6,14.7c-4.9-11.4,1.9,5,2.9,7.8c4.2,11,7.9,22.1,11.2,33.3c3.1,10.5,5.7,21.1,8,31.8c1.2,5.4,2.2,10.8,3.1,16.2c0.5,2.7,0.9,5.5,1.3,8.2c0.3,1.8,0.5,3.7,0.8,5.5c-0.8-6.2-0.9-7-0.4-2.5C907.9,462.2,908.9,481,909,499.8c0.1,22.1,18.4,40.5,40.5,40.5c22,0,40.6-18.4,40.5-40.5c-0.3-96.4-28.7-192.1-82.5-272.1C855.3,149.9,781,86.8,694.7,50.2C601.3,10.5,499.8,0.1,400.1,19.8c-92.6,18.3-179,66.3-245.9,132.4C15.8,289-29,505.1,46.1,685c37.6,89.9,99.1,165.6,179.3,221c79.2,54.6,175.6,83.1,271.5,84C689.3,991.7,872,873.8,948.3,697c27-62.5,41.5-129.1,41.7-197.3c0.1-22.1-18.5-40.5-40.5-40.5C927.4,459.2,909,477.6,909,499.8z"/><polygon points="494.8,52 593.2,355.1 911.8,355.1 654.1,542.3 752.5,845.4 494.8,658.1 237,845.4 335.4,542.3 77.7,355.1 396.3,355.1 " fill="#808080"/></g><g></g><g></g><g></g><g></g><g></g><g></g><g></g><g></g><g></g><g></g><g></g><g></g><g></g><g></g><g></g></g>
</svg>