<?xml version="1.0" encoding="UTF-8"?>
<svg width="16px" height="20px" viewBox="0 0 16 20" version="1.1" xmlns="http://www.w3.org/2000/svg" xmlns:xlink="http://www.w3.org/1999/xlink">
    <!-- Generator: Sketch 63.1 (92452) - https://sketch.com -->
    <title>Tasks</title>
    <desc>Created with Sketch.</desc>
    <g id="Design-System" stroke="none" stroke-width="1" fill="none" fill-rule="evenodd">
        <g id="Icons" transform="translate(-64.000000, -137.000000)">
            <g id="Tasks" transform="translate(60.000000, 135.000000)">
                <rect id="Rectangle" x="0" y="0" width="24" height="24"></rect>
                <path d="M14,2 C14.738,2 15.376,2.405 15.723,3 L15.723,3 L18,3 C19.104,3 20,3.896 20,5 L20,5 L20,20 C20,21.104 19.104,22 18,22 L18,22 L6,22 C4.896,22 4,21.104 4,20 L4,20 L4,5 C4,3.896 4.896,3 6,3 L6,3 L8.277,3 C8.624,2.405 9.262,2 10,2 L10,2 Z M8.277,5 L6,5 L6,20 L18,20 L18,5 L15.723,5 C15.376,5.595 14.738,6 14,6 L14,6 L10,6 C9.262,6 8.624,5.595 8.277,5 L8.277,5 Z M14.5352,9.9644 C14.9262,9.5734 15.5582,9.5734 15.9492,9.9644 C16.3402,10.3544 16.3402,10.9874 15.9492,11.3784 L15.9492,11.3784 L11.2932,16.0354 C11.0972,16.2314 10.8422,16.3284 10.5862,16.3284 C10.3302,16.3284 10.0742,16.2314 9.8792,16.0354 L9.8792,16.0354 L8.0512,14.2074 C7.6602,13.8164 7.6602,13.1834 8.0512,12.7934 C8.4412,12.4024 9.0742,12.4024 9.4652,12.7934 L9.4652,12.7934 L10.5862,13.9144 Z" id="Combined-Shape" fill="rgb(243, 181, 85)"></path>
            </g>
        </g>
    </g>
</svg>