<svg id="Layer_1" data-name="Layer 1" xmlns="http://www.w3.org/2000/svg" viewBox="0 0 38.75 38.75"><defs><style>.cls-1{fill:#f3f4f4;}.cls-2{fill:none;}.cls-3{fill:#818181;}</style></defs><title>threedot</title><g id="Design-System"><g id="Icons"><g id="Check"><g id="Group-25-Copy-7"><circle id="Oval" class="cls-1" cx="19.38" cy="19.38" r="19.38"/></g><path id="Fill-1" class="cls-1" d="M680.59,24.31a2,2,0,0,0-2.83,0L667.18,34.89l-2.59-2.59a2,2,0,1,0-2.83,2.83l4,4a2,2,0,0,0,2.83,0l12-12a2,2,0,0,0,0-2.83" transform="translate(-651.8 -12.35)"/></g></g></g><g id="Design-System-2" data-name="Design-System"><g id="Icons-2" data-name="Icons"><g id="_3-dots" data-name="3-dots"><circle id="Oval-2" data-name="Oval" class="cls-2" cx="19.38" cy="19.38" r="19.38"/><path id="Combined-Shape" class="cls-3" d="M671.18,37.37a2.42,2.42,0,1,1-2.42,2.42A2.42,2.42,0,0,1,671.18,37.37Zm0-8.07a2.42,2.42,0,1,1-2.42,2.42A2.42,2.42,0,0,1,671.18,29.3Zm0-8.07a2.42,2.42,0,1,1-2.42,2.42A2.42,2.42,0,0,1,671.18,21.23Z" transform="translate(-651.8 -12.35)"/></g></g></g></svg>