<svg xmlns="http://www.w3.org/2000/svg" viewBox="0 0 12 12" width="512" height="512">
	<style>
		tspan { white-space:pre }
		.shp0 { fill: none } 
		.shp1 { fill: #eb6953 } 
	</style>
	<g id="Design-System">
		<g id="Icons">
			<g id="Unanswered-call">
				<path id="Rectangle" class="shp0" d="M-6 -6L18 -6L18 18L-6 18L-6 -6Z" />
				<path id="Combined-Shape" fill-rule="evenodd" class="shp1" d="M3 0C3.9 0 4.6 0.7 4.7 1.5C4.8 2.2 4.9 2.8 5.2 3.5C5.6 4.4 5.4 5.4 4.7 6.1L4 6.7C4.4 7.2 4.8 7.6 5.3 8L5.9 7.4C6.6 6.7 7.6 6.5 8.5 6.9C9.1 7.2 9.8 7.3 10.5 7.4C11.3 7.5 12 8.2 12 9.1L12 10.3C12 10.8 11.8 11.3 11.4 11.6C11.1 11.9 10.7 12 10.3 12L10.2 12C8.3 11.9 6.4 11.2 4.8 10.1C3.7 9.3 2.7 8.3 1.9 7.2C0.8 5.6 0.1 3.7 0 1.8C0 1.3 0.1 0.9 0.4 0.5C0.8 0.2 1.2 0 1.7 0L3 0ZM7.7 8.7C7.6 8.6 7.4 8.7 7.3 8.8L7 9.1C7.9 9.6 9 9.9 10 10L10 9.3C9.2 9.2 8.4 9 7.7 8.7ZM2 2C2.1 3 2.4 4.1 2.9 5L3.2 4.7C3.3 4.6 3.3 4.5 3.3 4.3C3 3.5 2.8 2.8 2.7 2L2 2ZM7.3 0.3C7.7 -0.1 8.3 -0.1 8.7 0.3L9.5 1.1L10.3 0.3C10.7 -0.1 11.3 -0.1 11.7 0.3C12.1 0.7 12.1 1.3 11.7 1.7L10.9 2.5L11.7 3.3C12.1 3.7 12.1 4.3 11.7 4.7C11.5 4.9 11.3 5 11 5C10.7 5 10.5 4.9 10.3 4.7L9.5 3.9L8.7 4.7C8.5 4.9 8.3 5 8 5C7.7 5 7.5 4.9 7.3 4.7C6.9 4.3 6.9 3.7 7.3 3.3L8.1 2.5L7.3 1.7C6.9 1.3 6.9 0.7 7.3 0.3Z" />
			</g>
		</g>
	</g>
</svg>