<?xml version="1.0" encoding="utf-8"?>
<!-- Generator: Adobe Illustrator 21.0.1, SVG Export Plug-In . SVG Version: 6.00 Build 0)  -->
<svg version="1.1" id="Layer_1" xmlns="http://www.w3.org/2000/svg" xmlns:xlink="http://www.w3.org/1999/xlink" x="0px" y="0px"
	 viewBox="0 0 12 12" style="enable-background:new 0 0 12 12;" xml:space="preserve">
<style type="text/css">
	.st0{fill:none;}
	.st1{fill:#EB6953;}
</style>
<title>Unanswered call</title>
<desc>Created with Sketch.</desc>
<g id="Design-System">
	<g id="Icons" transform="translate(-66.000000, -1329.000000)">
		<g id="Unanswered-call" transform="translate(60.000000, 1323.000000)">
			<rect id="Rectangle" class="st0" width="24" height="24"/>
			<path id="Combined-Shape" class="st1" d="M9,6c0.9,0,1.6,0.7,1.7,1.5c0.1,0.7,0.2,1.3,0.5,2c0.4,0.9,0.2,1.9-0.5,2.6l0,0L10,12.7
				c0.4,0.5,0.8,0.9,1.3,1.3l0,0l0.6-0.6c0.7-0.7,1.7-0.9,2.6-0.5c0.6,0.3,1.3,0.4,2,0.5c0.8,0.1,1.5,0.8,1.5,1.7l0,0v1.2
				c0,0.5-0.2,1-0.6,1.3c-0.3,0.3-0.7,0.4-1.1,0.4c0,0-0.1,0-0.1,0c-1.9-0.1-3.8-0.8-5.4-1.9c0,0,0,0,0,0c-1.1-0.8-2.1-1.8-2.9-2.9
				c0,0,0,0,0,0C6.8,11.6,6.1,9.7,6,7.8c0-0.5,0.1-0.9,0.4-1.3C6.8,6.2,7.2,6,7.7,6l0,0H9z M13.7,14.7c-0.1-0.1-0.3,0-0.4,0.1l0,0
				L13,15.1c0.9,0.5,2,0.8,3,0.9l0,0v-0.7C15.2,15.2,14.4,15,13.7,14.7z M8.7,8H8c0.1,1,0.4,2.1,0.9,3l0,0l0.3-0.3
				c0.1-0.1,0.1-0.2,0.1-0.4C9,9.5,8.8,8.8,8.7,8L8.7,8z M13.3,6.3c0.4-0.4,1-0.4,1.4,0l0,0l0.8,0.8l0.8-0.8c0.4-0.4,1-0.4,1.4,0
				c0.4,0.4,0.4,1,0,1.4l0,0l-0.8,0.8l0.8,0.8c0.4,0.4,0.4,1,0,1.4C17.5,10.9,17.3,11,17,11s-0.5-0.1-0.7-0.3l0,0l-0.8-0.8l-0.8,0.8
				C14.5,10.9,14.3,11,14,11c-0.3,0-0.5-0.1-0.7-0.3c-0.4-0.4-0.4-1,0-1.4l0,0l0.8-0.8l-0.8-0.8C12.9,7.3,12.9,6.7,13.3,6.3z"/>
		</g>
	</g>
</g>
</svg>
