<svg xmlns="http://www.w3.org/2000/svg" viewBox="0 0 16 16" width="16" height="16">
	<style>
		tspan { white-space:pre }
		.shp0 { fill: none } 
		.shp1 { fill: #eb6953 } 
	</style>
	<g id="Design-System">
		<g id="Icons">
			<g id="Unanswered-call">
				<path id="Rectangle" class="shp0" d="M-4 -4L20 -4L20 20L-4 20L-4 -4Z" />
				<path id="Combined-Shape" fill-rule="evenodd" class="shp1" d="M5 2C5.9 2 6.6 2.7 6.7 3.5C6.8 4.2 6.9 4.8 7.2 5.5C7.6 6.4 7.4 7.4 6.7 8.1L6 8.7C6.4 9.2 6.8 9.6 7.3 10L7.9 9.4C8.6 8.7 9.6 8.5 10.5 8.9C11.1 9.2 11.8 9.3 12.5 9.4C13.3 9.5 14 10.2 14 11.1L14 12.3C14 12.8 13.8 13.3 13.4 13.6C13.1 13.9 12.7 14 12.3 14L12.2 14C10.3 13.9 8.4 13.2 6.8 12.1C5.7 11.3 4.7 10.3 3.9 9.2C2.8 7.6 2.1 5.7 2 3.8C2 3.3 2.1 2.9 2.4 2.5C2.8 2.2 3.2 2 3.7 2L5 2ZM9.7 10.7C9.6 10.6 9.4 10.7 9.3 10.8L9 11.1C9.9 11.6 11 11.9 12 12L12 11.3C11.2 11.2 10.4 11 9.7 10.7ZM4 4C4.1 5 4.4 6.1 4.9 7L5.2 6.7C5.3 6.6 5.3 6.5 5.3 6.3C5 5.5 4.8 4.8 4.7 4L4 4ZM9.3 2.3C9.7 1.9 10.3 1.9 10.7 2.3L11.5 3.1L12.3 2.3C12.7 1.9 13.3 1.9 13.7 2.3C14.1 2.7 14.1 3.3 13.7 3.7L12.9 4.5L13.7 5.3C14.1 5.7 14.1 6.3 13.7 6.7C13.5 6.9 13.3 7 13 7C12.7 7 12.5 6.9 12.3 6.7L11.5 5.9L10.7 6.7C10.5 6.9 10.3 7 10 7C9.7 7 9.5 6.9 9.3 6.7C8.9 6.3 8.9 5.7 9.3 5.3L10.1 4.5L9.3 3.7C8.9 3.3 8.9 2.7 9.3 2.3Z" />
			</g>
		</g>
	</g>
</svg>