<?xml version="1.0" encoding="UTF-8"?>
<svg width="16px" height="20px" viewBox="0 0 16 20" version="1.1" xmlns="http://www.w3.org/2000/svg" xmlns:xlink="http://www.w3.org/1999/xlink">
    <!-- Generator: Sketch 63.1 (92452) - https://sketch.com -->
    <title>Unqualified deals</title>
    <desc>Created with Sketch.</desc>
    <g id="Design-System" stroke="none" stroke-width="1" fill="none" fill-rule="evenodd">
        <g id="Icons" transform="translate(-64.000000, -1633.000000)">
            <g id="Unqualified-deals" transform="translate(60.000000, 1631.000000)">
                <rect id="Rectangle" x="0" y="0" width="24" height="24"></rect>
                <path d="M18,12.0001065 C19.11,12.0001065 20,12.8901065 20,14.0001065 L20,14.0001065 L20,17.0001065 C20,18.1001065 19.11,19.0001065 18,19.0001065 L18,19.0001065 L17.36,19.0001065 C17.28,19.3301065 17.11,19.6401065 16.86,19.9001065 L16.86,19.9001065 L15.35,21.3901065 C14.98,21.7701065 14.471,21.9801065 13.94,21.9801065 L13.94,21.9801065 L10.6,22.0001065 C10.07,22.0001065 9.561,21.7901065 9.19,21.4201065 L9.19,21.4201065 L6.771,19.0101065 L6.02,19.0201065 L6.01,19.0201065 C4.91,19.0201065 4.01,18.1301065 4.01,17.0201065 L4.01,17.0201065 L4,14.0201065 C4,12.9201065 4.891,12.0201065 5.99,12.0201065 L5.99,12.0201065 L11.25,12.0001065 Z M9.471,14.0101065 L6,14.0201065 L6.01,17.0201065 L6.76,17.0101065 L6.771,17.0101065 C7.29,17.0101065 7.801,17.2201065 8.18,17.5901065 L8.18,17.5901065 L10.6,20.0001065 L13.93,19.9801065 L15.44,18.4801065 L14.34,17.3901065 L14.26,17.4701065 C13.67,18.0601065 12.91,18.3501065 12.141,18.3501065 C11.37,18.3501065 10.6,18.0601065 10.021,17.4701065 C9.08,16.5301065 8.9,15.1301065 9.471,14.0101065 L9.471,14.0101065 Z M18,14.0001065 L12.08,14.0001065 L11.49,14.5801065 L11.43,14.6401065 C11.04,15.0301065 11.04,15.6701065 11.43,16.0601065 C11.69,16.3201065 11.98,16.3501065 12.141,16.3501065 C12.29,16.3501065 12.59,16.3201065 12.84,16.0601065 L12.84,16.0601065 L12.9,16.0101065 L12.92,15.9901065 C13.29,15.6101065 13.79,15.4001065 14.311,15.3901065 L14.311,15.3901065 L14.34,15.3901065 C14.86,15.3901065 15.36,15.6001065 15.74,15.9701065 L15.74,15.9701065 L16.271,16.4901065 L16.79,17.0001065 L18,17.0001065 L18,14.0001065 Z M12.0019,8.00160652 C12.5539,8.00160652 13.0019,8.44960652 13.0019,9.00160652 C13.0019,9.55360652 12.5539,10.0016065 12.0019,10.0016065 C11.4489,10.0016065 11.0019,9.55360652 11.0019,9.00160652 C11.0019,8.44960652 11.4489,8.00160652 12.0019,8.00160652 Z M10.2334,2.73460652 C10.8024,2.16460652 11.5834,1.90460652 12.3904,2.03160652 C13.4934,2.20060652 14.3534,3.09360652 14.4844,4.20160652 C14.6224,5.36960652 13.9444,6.44960652 12.8754,6.84560652 C12.7034,7.15060652 12.3774,7.35660652 12.0024,7.35660652 C11.4494,7.35660652 11.0024,6.90860652 11.0024,6.35660652 C11.0024,5.69560652 11.4584,5.13360652 12.1114,4.98960652 C12.3244,4.94260652 12.5334,4.73260652 12.4984,4.43660652 C12.4734,4.22760652 12.2934,4.03960652 12.0864,4.00760652 C11.8664,3.97560652 11.7154,4.08060652 11.6494,4.14760652 C11.2584,4.53960652 10.6254,4.53860652 10.2344,4.14860652 C9.8434,3.75860652 9.8434,3.12560652 10.2334,2.73460652 Z" id="Combined-Shape" fill="#808080"></path>
            </g>
        </g>
    </g>
</svg>